<svg viewBox="0 0 32.54 33.96" xmlns="http://www.w3.org/2000/svg" xmlns:xlink="http://www.w3.org/1999/xlink" id="TANYAG_ÉPÜLETEK" overflow="hidden"><defs/><g><g><path d="M21.87 9.35 23.49 10.28 21.87 11.22 20.26 10.28 21.87 9.35Z" fill="#F7F7F7"/><path d="M23.49 16.65 21.87 17.58 21.87 11.22 23.49 10.28 23.49 16.65Z" fill="#DADADA"/><path d="M20.26 16.65 21.87 17.58 21.87 11.22 20.26 10.28 20.26 16.65Z" fill="#C6C6C6"/></g><g><path d="M30.02 14.06 31.64 14.99 30.02 15.92 28.4 14.99 30.02 14.06Z" fill="#F7F7F7"/><path d="M31.64 21.35 30.02 22.28 30.02 15.92 31.64 14.99 31.64 21.35Z" fill="#DADADA"/><path d="M28.4 21.35 30.02 22.28 30.02 15.92 28.4 14.99 28.4 21.35Z" fill="#C6C6C6"/></g><g><path d="M20.26 10.28 30.02 15.92 30.02 14.93 20.26 9.29 20.26 10.28Z" fill="#C6C6C6"/><path d="M31.64 13.99 21.87 8.36 20.26 9.29 30.02 14.93 31.64 13.99Z" fill="#ADB0BB"/><path d="M30.02 15.92 31.64 14.98 31.64 13.99 30.02 14.93 30.02 15.92Z" fill="#DADADA"/></g><g><path d="M21.12 9.79 21.12 1.43 20.26 0.93 20.26 9.29 21.12 9.79Z" fill="#C6C6C6"/><path d="M21.87 0 20.26 0.93 21.12 1.43 22.74 0.5 21.87 0Z" fill="#F6F6F6"/><path d="M21.12 1.43 22.74 0.5 22.74 8.86 21.12 9.79 21.12 1.43Z" fill="#DADADA"/></g><g><path d="M21.87 15.62 28.4 19.38 28.4 18.39 21.87 14.62 21.87 15.62Z" fill="#C6C6C6"/><path d="M28.4 16.52 23.49 13.69 21.87 14.62 28.4 18.39 28.4 16.52Z" fill="#ADB0BB"/></g></g><g><g><path d="M1.62 21.03 3.23 21.97 1.62 22.9 0 21.97 1.62 21.03Z" fill="#F7F7F7"/><path d="M3.23 28.33 1.62 29.26 1.62 22.9 3.23 21.97 3.23 28.33Z" fill="#DADADA"/><path d="M0 28.33 1.62 29.26 1.62 22.9 0 21.97 0 28.33Z" fill="#C6C6C6"/></g><g><path d="M9.76 25.74 11.38 26.67 9.76 27.6 8.15 26.67 9.76 25.74Z" fill="#F7F7F7"/><path d="M11.38 33.03 9.76 33.96 9.76 27.6 11.38 26.67 11.38 33.03Z" fill="#DADADA"/><path d="M8.15 33.03 9.76 33.96 9.76 27.6 8.15 26.67 8.15 33.03Z" fill="#C6C6C6"/></g><g><path d="M0 21.97 9.76 27.6 9.76 26.61 0 20.97 0 21.97Z" fill="#C6C6C6"/><path d="M11.38 25.67 1.62 20.04 0 20.97 9.76 26.61 11.38 25.67Z" fill="#ADB0BB"/><path d="M9.76 27.6 11.38 26.67 11.38 25.67 9.76 26.61 9.76 27.6Z" fill="#DADADA"/></g><g><path d="M0.86 21.47 0.86 13.11 0 12.61 0 20.97 0.86 21.47Z" fill="#C6C6C6"/><path d="M1.62 11.68 0 12.61 0.86 13.11 2.48 12.18 1.62 11.68Z" fill="#F6F6F6"/><path d="M0.86 13.11 2.48 12.18 2.48 20.54 0.86 21.47 0.86 13.11Z" fill="#DADADA"/></g><g><path d="M1.62 27.3 8.15 31.06 8.15 30.07 1.62 26.31 1.62 27.3Z" fill="#C6C6C6"/><path d="M8.15 28.2 3.23 25.37 1.62 26.31 8.15 30.07 8.15 28.2Z" fill="#ADB0BB"/></g></g><g><path d="M6.63 25.29 9.02 26.67 32.54 13.09 30.14 11.71 6.63 25.29Z" fill="#DDAD0C"/><path d="M6.63 25.66 9.02 27.04 9.02 26.66 6.63 25.28 6.63 25.66Z" fill="#D8A00A"/><path d="M32.54 13.09 32.53 13.47 9.02 27.04 9.02 26.66 32.54 13.09Z" fill="#D8A00A"/></g><g><path d="M3.38 23.4 5.77 24.78 29.28 11.21 26.89 9.83 3.38 23.4Z" fill="#DDAD0C"/><path d="M3.38 23.78 5.77 25.16 5.77 24.78 3.38 23.4 3.38 23.78Z" fill="#D8A00A"/><path d="M29.28 11.21 29.28 11.58 5.77 25.16 5.77 24.78 29.28 11.21Z" fill="#D8A00A"/></g><g><path d="M0.12 21.51 2.51 22.89 26.02 9.32 23.63 7.94 0.12 21.51Z" fill="#DDAD0C"/><path d="M0.12 21.89 2.51 23.27 2.51 22.89 0.12 21.51 0.12 21.89Z" fill="#D8A00A"/><path d="M26.02 9.32 26.02 9.69 2.51 23.27 2.51 22.89 26.02 9.32Z" fill="#D8A00A"/></g><g><path d="M0.46 13.96 0.46 16.7 23.97 3.13 23.97 0.38 0.46 13.96Z" fill="#DDAD0C"/><path d="M0.13 13.76 0.13 16.51 0.46 16.7 0.46 13.96 0.13 13.76Z" fill="#D8A00A"/><path d="M23.97 0.38 23.63 0.19 0.13 13.76 0.46 13.96 23.97 0.38Z" fill="#D8A00A"/></g><g><path d="M0.46 17.71 0.46 20.46 23.97 6.89 23.97 4.14 0.46 17.71Z" fill="#DDAD0C"/><path d="M0.13 17.52 0.13 20.27 0.46 20.46 0.46 17.71 0.13 17.52Z" fill="#D8A00A"/><path d="M23.97 4.14 23.63 3.95 0.13 17.52 0.46 17.71 23.97 4.14Z" fill="#D8A00A"/></g></svg>