<svg viewBox="0 0 49.5 71.62" xmlns="http://www.w3.org/2000/svg" xmlns:xlink="http://www.w3.org/1999/xlink" id="TANYAG_ÉPÜLETEK" overflow="hidden"><defs><radialGradient cx="-2219.4" cy="561.15" r="12.7" fx="-2219.4" fy="561.15" gradientUnits="userSpaceOnUse" id="radial-gradient" gradientTransform="matrix(1.16954e-16 -1.91 -1.91 -1.16954e-16 1106.23 -4227.5)"><stop offset="0" stop-color="#80C242"/><stop offset="1" stop-color="#14763B"/></radialGradient><radialGradient cx="-2797.36" cy="366.25" r="12.7" fx="-2797.36" fy="366.25" xlink:href="#radial-gradient" id="radial-gradient-2" gradientTransform="matrix(-1.38 -1.69001e-16 -1.69001e-16 1.38 -3855.4 -478.87)"/></defs><path d="M13.34 62.39C13.34 67.49 20.95 71.62 30.35 71.62 39.74 71.62 47.36 67.49 47.36 62.39 47.36 57.29 39.75 53.16 30.35 53.16 20.95 53.16 13.34 57.29 13.34 62.39Z" fill="#132314" opacity="0.2"/><path d="M32.89 38.77 32.89 62.02C32.89 62.02 33.04 63.54 30.14 63.75 27.24 63.96 26.81 61.67 26.81 61.67L26.81 49.89C26.81 49.89 19.42 48.93 16.96 44.93 14.5 40.93 14.79 36.32 14.79 36.32L17.4 36.32C17.4 36.32 17.83 41.53 20.73 44.27 23.63 47.01 27.25 45.59 27.25 45.59L27.25 32.62C27.25 32.62 32.9 32.62 32.9 32.62L32.9 38.78Z" fill="#632B17"/><ellipse cx="30.35" cy="20.54" rx="20.56" ry="19.13" fill="url(#radial-gradient)" transform="matrix(0.118924 -0.992903 0.992903 0.118924 6.34 48.23)"/><ellipse cx="13.83" cy="29.59" rx="13.83" ry="14.86" fill="url(#radial-gradient-2)"/><path d="M14 24.21C14 26.24 15.53 27.88 17.42 27.88 19.31 27.88 20.84 26.24 20.84 24.21 20.84 22.18 19.31 20.54 17.42 20.54 15.53 20.54 14 22.18 14 24.21Z" fill="#74BF44" opacity="0.2"/><path d="M4.18 34.08C4.18 35.19 5.02 36.09 6.05 36.09 7.08 36.09 7.92 35.19 7.92 34.08 7.92 32.97 7.08 32.07 6.05 32.07 5.02 32.07 4.18 32.97 4.18 34.08Z" fill="#74BF44" opacity="0.2"/><path d="M17.1 35.48C17.1 36.59 17.94 37.49 18.97 37.49 20 37.49 20.84 36.59 20.84 35.48 20.84 34.37 20 33.47 18.97 33.47 17.94 33.47 17.1 34.37 17.1 35.48Z" fill="#74BF44" opacity="0.2"/><path d="M32.58 12.73C32.58 14.76 34.11 16.4 36 16.4 37.89 16.4 39.42 14.76 39.42 12.73 39.42 10.7 37.89 9.06 36 9.06 34.11 9.06 32.58 10.7 32.58 12.73Z" fill="#74BF44" opacity="0.2"/><path d="M23.93 7.05C23.93 8.16 24.77 9.06 25.8 9.06 26.83 9.06 27.67 8.16 27.67 7.05 27.67 5.94 26.83 5.04 25.8 5.04 24.77 5.04 23.93 5.94 23.93 7.05Z" fill="#74BF44" opacity="0.2"/><path d="M35.68 24C35.68 25.11 36.52 26.01 37.55 26.01 38.58 26.01 39.42 25.11 39.42 24 39.42 22.89 38.58 21.99 37.55 21.99 36.52 21.99 35.68 22.89 35.68 24Z" fill="#74BF44" opacity="0.2"/></svg>