<svg viewBox="0 0 56.13 81.21" xmlns="http://www.w3.org/2000/svg" xmlns:xlink="http://www.w3.org/1999/xlink" id="TANYAG_ÉPÜLETEK" overflow="hidden"><defs><radialGradient cx="-1883.77" cy="564.44" r="14.4" fx="-1883.77" fy="564.44" gradientUnits="userSpaceOnUse" id="radial-gradient" gradientTransform="matrix(1.16954e-16 -1.91 -1.91 -1.16954e-16 1117.02 -3584.72)"><stop offset="0" stop-color="#80C242"/><stop offset="1" stop-color="#14763B"/></radialGradient><radialGradient cx="-2413.73" cy="362.24" r="14.4" fx="-2413.73" fy="362.24" xlink:href="#radial-gradient" id="radial-gradient-2" gradientTransform="matrix(-1.38 -1.69001e-16 -1.69001e-16 1.38 -3324.57 -469.73)"/></defs><path d="M15.13 70.74C15.13 76.52 23.76 81.21 34.41 81.21 45.06 81.21 53.69 76.52 53.69 70.74 53.69 64.96 45.06 60.27 34.41 60.27 23.76 60.27 15.13 64.96 15.13 70.74Z" fill="#132314" opacity="0.2"/><path d="M37.29 43.97 37.29 70.33C37.29 70.33 37.45 72.05 34.17 72.29 30.88 72.53 30.39 69.93 30.39 69.93L30.39 56.57C30.39 56.57 22.01 55.49 19.22 50.94 16.43 46.4 16.76 41.18 16.76 41.18L19.72 41.18C19.72 41.18 20.21 47.09 23.5 50.2 26.79 53.31 30.89 51.69 30.89 51.69L30.89 36.99C30.89 36.99 37.3 36.99 37.3 36.99L37.3 43.98Z" fill="#632B17"/><ellipse cx="34.41" cy="23.29" rx="23.31" ry="21.69" fill="url(#radial-gradient)" transform="matrix(0.118924 -0.992903 0.992903 0.118924 7.19 54.69)"/><ellipse cx="15.68" cy="33.55" rx="15.68" ry="16.85" fill="url(#radial-gradient-2)"/><path d="M15.88 27.45C15.88 29.75 17.61 31.61 19.75 31.61 21.89 31.61 23.62 29.75 23.62 27.45 23.62 25.15 21.89 23.29 19.75 23.29 17.61 23.29 15.88 25.15 15.88 27.45Z" fill="#74BF44" opacity="0.2"/><path d="M4.74 38.64C4.74 39.9 5.69 40.92 6.86 40.92 8.03 40.92 8.98 39.9 8.98 38.64 8.98 37.38 8.03 36.36 6.86 36.36 5.69 36.36 4.74 37.38 4.74 38.64Z" fill="#74BF44" opacity="0.2"/><path d="M19.39 40.23C19.39 41.49 20.34 42.51 21.51 42.51 22.68 42.51 23.63 41.49 23.63 40.23 23.63 38.97 22.68 37.95 21.51 37.95 20.34 37.95 19.39 38.97 19.39 40.23Z" fill="#74BF44" opacity="0.2"/><path d="M36.95 14.44C36.95 16.74 38.68 18.6 40.82 18.6 42.96 18.6 44.69 16.74 44.69 14.44 44.69 12.14 42.96 10.28 40.82 10.28 38.68 10.28 36.95 12.14 36.95 14.44Z" fill="#74BF44" opacity="0.2"/><path d="M27.13 8C27.13 9.26 28.08 10.28 29.25 10.28 30.42 10.28 31.37 9.26 31.37 8 31.37 6.74 30.42 5.72 29.25 5.72 28.08 5.72 27.13 6.74 27.13 8Z" fill="#74BF44" opacity="0.2"/><path d="M40.46 27.22C40.46 28.48 41.41 29.5 42.58 29.5 43.75 29.5 44.7 28.48 44.7 27.22 44.7 25.96 43.75 24.94 42.58 24.94 41.41 24.94 40.46 25.96 40.46 27.22Z" fill="#74BF44" opacity="0.2"/></svg>