<svg viewBox="0 0 1668.04 730.43" xmlns="http://www.w3.org/2000/svg" xmlns:xlink="http://www.w3.org/1999/xlink" id="a" overflow="hidden"><defs><linearGradient x1="1.5" y1="370.35" x2="1638" y2="370.35" gradientUnits="userSpaceOnUse" id="b"><stop offset="0" stop-color="#B2FF55"/><stop offset="0.06" stop-color="#A8F951"/><stop offset="0.17" stop-color="#8FEA48"/><stop offset="0.3" stop-color="#65D139"/><stop offset="0.46" stop-color="#2CAE25"/><stop offset="0.57" stop-color="#009416"/><stop offset="0.87" stop-color="#006A1E"/><stop offset="0.99" stop-color="#007F53"/></linearGradient></defs><path d="M1575.31 723.93 64.19 728.93C29.57 728.93 1.5 700.86 1.5 666.24L1.5 79.46C1.5 44.84 29.57 16.77 64.19 16.77L1575.31 11.77C1609.93 11.77 1638 39.84 1638 74.46L1638 661.23C1638 695.85 1609.93 723.92 1575.31 723.92Z" stroke="#000000" stroke-width="3" stroke-miterlimit="10" fill="url(#b)"/><path d="M1608.56 695.39 88.01 700.39C55.99 700.39 30.03 674.43 30.03 642.41L30.03 64.48C30.03 32.46 55.99 6.5 88.01 6.5L1608.56 1.5C1640.58 1.5 1666.54 27.46 1666.54 59.48L1666.54 637.42C1666.54 669.44 1640.58 695.4 1608.56 695.4Z" stroke="#000000" stroke-width="3" stroke-miterlimit="10" fill="#FFFFFF"/></svg>