<svg viewBox="0 0 721.72 444.36" xmlns="http://www.w3.org/2000/svg" xmlns:xlink="http://www.w3.org/1999/xlink" overflow="hidden"><defs><clipPath id="c"><path d="M0 444.36 721.72 444.36 721.72 0 0 0 0 444.36 0 444.36Z" fill="none" clip-rule="evenodd"/></clipPath><clipPath id="b"><path d="M0 0 721.72 0 721.72 444.36 0 444.36 0 0 0 0Z" fill="none" clip-rule="evenodd" clip-path="url(#c)"/></clipPath><clipPath id="d"><path d="M0 444.36 721.72 444.36 721.72 0 0 0 0 444.36 0 444.36Z" fill="none"/></clipPath></defs><g id="a"><g clip-path="url(#b)"><g clip-path="url(#d)"><path d="M1.12 76.87 1.12 416.35C1.12 431.56 13.38 443.88 28.5 443.88L693.94 443.88C709.06 443.88 721.32 431.56 721.32 416.35L721.32 76.87 1.12 76.87Z" fill="#EDEDEB"/><path d="M693.95 1.16C709.07 1.16 721.33 13.49 721.33 28.69L721.33 416.37C721.33 431.57 709.07 443.9 693.95 443.9L28.5 443.9C13.38 443.9 1.12 431.57 1.12 416.37L1.12 28.69C1.12 13.49 13.38 1.16 28.5 1.16L693.95 1.16Z" fill="#D3D9EF"/><path d="M693.95 1.16C709.07 1.16 721.33 13.49 721.33 28.69L721.33 416.37C721.33 431.57 709.07 443.9 693.95 443.9L28.5 443.9C13.38 443.9 1.12 431.57 1.12 416.37L1.12 28.69C1.12 13.49 13.38 1.16 28.5 1.16L693.95 1.16Z" stroke="#401737" stroke-width="0.72" stroke-miterlimit="10" fill="none"/><path d="M1.07 76.87 721.27 76.87 721.27 28.69C721.27 13.48 709.01 1.16 693.89 1.16L28.45 1.16C13.33 1.16 1.07 13.48 1.07 28.69L1.07 76.87 1.07 76.87Z" fill="#E4E8F3"/><path d="M1.07 76.87 721.27 76.87 721.27 28.69C721.27 13.48 709.01 1.16 693.89 1.16L28.45 1.16C13.33 1.16 1.07 13.48 1.07 28.69L1.07 76.87 1.07 76.87Z" stroke="#401737" stroke-width="0.72" stroke-miterlimit="10" fill="none"/></g></g></g><g id="e"><g><path d="M483.52 91.06C491.31 91.06 497.63 97.41 497.63 105.25L497.63 413.09C497.63 420.92 491.31 427.28 483.52 427.28L38.29 427.28C30.5 427.28 24.18 420.93 24.18 413.09L24.18 105.25C24.18 97.42 30.5 91.06 38.29 91.06L483.53 91.06Z" stroke="#1D1D1B" stroke-miterlimit="10" fill="#F4F4F4"/><path d="M683.43 91.06C691.22 91.06 697.54 97.41 697.54 105.25L697.54 413.09C697.54 420.92 691.22 427.28 683.43 427.28L532.19 427.28C524.4 427.28 518.08 420.93 518.08 413.09L518.08 105.25C518.08 97.42 524.4 91.06 532.19 91.06L683.43 91.06Z" stroke="#1D1D1B" stroke-miterlimit="10" fill="#F4F4F4"/></g></g></svg>