<svg viewBox="0 0 567.72 444.36" xmlns="http://www.w3.org/2000/svg" xmlns:xlink="http://www.w3.org/1999/xlink" id="Réteg_2" overflow="hidden"><defs><clipPath id="clippath"><path d="M0 444.36 567.72 444.36 567.72 0 0 0 0 444.36 0 444.36Z" fill="none" clip-rule="evenodd"/></clipPath><clipPath id="clippath-1"><path d="M0 0 567.72 0 567.72 444.36 0 444.36 0 0 0 0Z" fill="none" clip-rule="evenodd" clip-path="url(#clippath)"/></clipPath><clipPath id="clippath-2"><path d="M0 444.36 567.72 444.36 567.72 0 0 0 0 444.36 0 444.36Z" fill="none"/></clipPath></defs><g clip-path="url(#clippath-1)"><g clip-path="url(#clippath-2)"><path d="M1.12 76.87 1.12 416.35C1.12 431.56 13.38 443.88 28.5 443.88L539.94 443.88C555.06 443.88 567.32 431.56 567.32 416.35L567.32 76.87 1.12 76.87Z" fill="#EDEDEB"/><path d="M539.95 1.16C555.07 1.16 567.33 13.49 567.33 28.69L567.33 416.37C567.33 431.57 555.07 443.9 539.95 443.9L28.5 443.9C13.38 443.9 1.12 431.57 1.12 416.37L1.12 28.69C1.12 13.49 13.38 1.16 28.5 1.16L539.95 1.16Z" fill="#EEF5E8"/><path d="M539.95 1.16C555.07 1.16 567.33 13.49 567.33 28.69L567.33 416.37C567.33 431.57 555.07 443.9 539.95 443.9L28.5 443.9C13.38 443.9 1.12 431.57 1.12 416.37L1.12 28.69C1.12 13.49 13.38 1.16 28.5 1.16L539.95 1.16Z" stroke="#401737" stroke-width="0.72" stroke-miterlimit="10" fill="none"/><path d="M1.07 76.87 567.27 76.87 567.27 28.69C567.27 13.48 555.01 1.16 539.89 1.16L28.45 1.16C13.33 1.16 1.07 13.48 1.07 28.69L1.07 76.87 1.07 76.87Z" fill="#F4F4F4"/><path d="M1.07 76.87 567.27 76.87 567.27 28.69C567.27 13.48 555.01 1.16 539.89 1.16L28.45 1.16C13.33 1.16 1.07 13.48 1.07 28.69L1.07 76.87 1.07 76.87Z" stroke="#401737" stroke-width="0.72" stroke-miterlimit="10" fill="none"/></g></g><g><path d="M528.94 95.48C536.58 95.48 542.78 101.71 542.78 109.39L542.78 411.33C542.78 419.01 536.59 425.24 528.94 425.24L33.39 425.24C25.75 425.24 19.55 419.01 19.55 411.33L19.55 109.4C19.55 101.72 25.74 95.49 33.39 95.49L528.94 95.49Z" fill="#F4F4F4"/><path d="M528.94 95.48C536.58 95.48 542.78 101.71 542.78 109.39L542.78 411.33C542.78 419.01 536.59 425.24 528.94 425.24L33.39 425.24C25.75 425.24 19.55 419.01 19.55 411.33L19.55 109.4C19.55 101.72 25.74 95.49 33.39 95.49L528.94 95.49Z" stroke="#401737" stroke-width="0.54" stroke-miterlimit="10" fill="none"/></g></svg>