<svg viewBox="0 0 713.72 444.36" xmlns="http://www.w3.org/2000/svg" xmlns:xlink="http://www.w3.org/1999/xlink" id="Réteg_2" overflow="hidden"><defs><clipPath id="clippath"><path d="M0 444.36 713.72 444.36 713.72 0 0 0 0 444.36 0 444.36Z" fill="none" clip-rule="evenodd"/></clipPath><clipPath id="clippath-1"><path d="M0 0 713.72 0 713.72 444.36 0 444.36 0 0 0 0Z" fill="none" clip-rule="evenodd" clip-path="url(#clippath)"/></clipPath><clipPath id="clippath-2"><path d="M0 444.36 713.72 444.36 713.72 0 0 0 0 444.36 0 444.36Z" fill="none"/></clipPath></defs><g clip-path="url(#clippath-1)"><g clip-path="url(#clippath-2)"><path d="M1.12 76.87 1.12 416.35C1.12 431.56 13.38 443.88 28.5 443.88L685.94 443.88C701.06 443.88 713.32 431.56 713.32 416.35L713.32 76.87 1.12 76.87Z" fill="#EDEDEB"/><path d="M685.95 1.16C701.07 1.16 713.33 13.49 713.33 28.69L713.33 416.37C713.33 431.57 701.07 443.9 685.95 443.9L28.5 443.9C13.38 443.9 1.12 431.57 1.12 416.37L1.12 28.69C1.12 13.49 13.38 1.16 28.5 1.16L685.95 1.16Z" fill="#C9E1BA"/><path d="M685.95 1.16C701.07 1.16 713.33 13.49 713.33 28.69L713.33 416.37C713.33 431.57 701.07 443.9 685.95 443.9L28.5 443.9C13.38 443.9 1.12 431.57 1.12 416.37L1.12 28.69C1.12 13.49 13.38 1.16 28.5 1.16L685.95 1.16Z" stroke="#401737" stroke-width="0.72" stroke-miterlimit="10" fill="none"/><path d="M1.07 76.87 713.27 76.87 713.27 28.69C713.27 13.48 701.01 1.16 685.89 1.16L28.45 1.16C13.33 1.16 1.07 13.48 1.07 28.69L1.07 76.87 1.07 76.87Z" fill="#EEF5E8"/><path d="M1.07 76.87 713.27 76.87 713.27 28.69C713.27 13.48 701.01 1.16 685.89 1.16L28.45 1.16C13.33 1.16 1.07 13.48 1.07 28.69L1.07 76.87 1.07 76.87Z" stroke="#401737" stroke-width="0.72" stroke-miterlimit="10" fill="none"/></g></g><g><path d="M670.93 91.1C678.72 91.1 685.04 97.45 685.04 105.29L685.04 413.13C685.04 420.96 678.72 427.32 670.93 427.32L40.69 427.32C32.9 427.32 26.58 420.97 26.58 413.13L26.58 105.29C26.58 97.46 32.9 91.1 40.69 91.1L670.93 91.1Z" fill="#FFFFFF"/><path d="M670.93 91.1C678.72 91.1 685.04 97.45 685.04 105.29L685.04 413.13C685.04 420.96 678.72 427.32 670.93 427.32L40.69 427.32C32.9 427.32 26.58 420.97 26.58 413.13L26.58 105.29C26.58 97.46 32.9 91.1 40.69 91.1L670.93 91.1Z" stroke="#401737" stroke-width="0.54" stroke-miterlimit="10" fill="none"/></g></svg>