<svg viewBox="0 0 932.56 932.56" xmlns="http://www.w3.org/2000/svg" xmlns:xlink="http://www.w3.org/1999/xlink" overflow="hidden"><defs><clipPath id="clippath"><rect x="229.92" y="220.77" rx="105.87" ry="105.87" width="377" height="373" fill="none"/></clipPath><clipPath id="clippath-1"><rect x="229.92" y="220.77" rx="105.87" ry="105.87" width="377" height="373" fill="none"/></clipPath><linearGradient x1="-31.36" y1="-339.4" x2="-31.36" y2="-822.24" gradientUnits="userSpaceOnUse" id="linear-gradient" gradientTransform="translate(205.34 754.8)"><stop offset="0" stop-color="#FFFFFF" stop-opacity="0"/><stop offset="1" stop-color="#A5D5A7"/></linearGradient><linearGradient x1="-13.77" y1="-339.4" x2="-13.77" y2="-822.24" xlink:href="#linear-gradient" id="linear-gradient-2" gradientTransform="translate(200.19 767.24)"></linearGradient><linearGradient x1="3.83" y1="-339.4" x2="3.83" y2="-822.24" xlink:href="#linear-gradient" id="linear-gradient-3" gradientTransform="translate(195.03 779.68)"></linearGradient><linearGradient x1="21.43" y1="-339.4" x2="21.43" y2="-822.24" xlink:href="#linear-gradient" id="linear-gradient-4" gradientTransform="translate(189.88 792.13)"></linearGradient><linearGradient x1="39.03" y1="-339.4" x2="39.03" y2="-822.24" xlink:href="#linear-gradient" id="linear-gradient-5" gradientTransform="translate(184.72 804.57)"></linearGradient><linearGradient x1="56.62" y1="-339.4" x2="56.62" y2="-822.24" xlink:href="#linear-gradient" id="linear-gradient-6" gradientTransform="translate(179.57 817.01)"></linearGradient><linearGradient x1="74.22" y1="-339.4" x2="74.22" y2="-822.24" xlink:href="#linear-gradient" id="linear-gradient-7" gradientTransform="translate(174.41 829.45)"></linearGradient><linearGradient x1="91.82" y1="-339.4" x2="91.82" y2="-822.24" xlink:href="#linear-gradient" id="linear-gradient-8" gradientTransform="translate(169.26 841.9)"></linearGradient><linearGradient x1="109.41" y1="-339.4" x2="109.41" y2="-822.24" xlink:href="#linear-gradient" id="linear-gradient-9" gradientTransform="translate(164.11 854.34)"></linearGradient><linearGradient x1="127.01" y1="-339.4" x2="127.01" y2="-822.24" xlink:href="#linear-gradient" id="linear-gradient-10" gradientTransform="translate(158.95 866.78)"></linearGradient><linearGradient x1="144.61" y1="-339.4" x2="144.61" y2="-822.24" xlink:href="#linear-gradient" id="linear-gradient-11" gradientTransform="translate(153.8 879.23)"></linearGradient><linearGradient x1="162.21" y1="-339.4" x2="162.21" y2="-822.24" xlink:href="#linear-gradient" id="linear-gradient-12" gradientTransform="translate(148.64 891.67)"></linearGradient><linearGradient x1="179.8" y1="-339.4" x2="179.8" y2="-822.24" xlink:href="#linear-gradient" id="linear-gradient-13" gradientTransform="translate(143.49 904.11)"></linearGradient><linearGradient x1="197.4" y1="-339.4" x2="197.4" y2="-822.24" xlink:href="#linear-gradient" id="linear-gradient-14" gradientTransform="translate(138.34 916.56)"></linearGradient><linearGradient x1="215" y1="-339.4" x2="215" y2="-822.24" xlink:href="#linear-gradient" id="linear-gradient-15" gradientTransform="translate(133.18 929)"></linearGradient><linearGradient x1="232.59" y1="-339.4" x2="232.59" y2="-822.24" xlink:href="#linear-gradient" id="linear-gradient-16" gradientTransform="translate(128.03 941.44)"></linearGradient><linearGradient x1="250.19" y1="-339.4" x2="250.19" y2="-822.24" xlink:href="#linear-gradient" id="linear-gradient-17" gradientTransform="translate(122.87 953.89)"></linearGradient><linearGradient x1="267.79" y1="-339.4" x2="267.79" y2="-822.24" xlink:href="#linear-gradient" id="linear-gradient-18" gradientTransform="translate(117.72 966.33)"></linearGradient><linearGradient x1="285.39" x2="285.39" y2="-822.24" xlink:href="#linear-gradient" id="linear-gradient-19" gradientTransform="translate(112.57 978.77)"></linearGradient><linearGradient x1="302.98" y1="-339.4" x2="302.98" y2="-822.24" xlink:href="#linear-gradient" id="linear-gradient-20" gradientTransform="translate(107.41 991.21)"></linearGradient><linearGradient x1="320.58" y1="-339.4" x2="320.58" y2="-822.24" xlink:href="#linear-gradient" id="linear-gradient-21" gradientTransform="translate(102.26 1003.66)"></linearGradient><linearGradient x1="338.18" y1="-339.4" x2="338.18" y2="-822.24" xlink:href="#linear-gradient" id="linear-gradient-22" gradientTransform="translate(97.1 1016.1)"></linearGradient><linearGradient x1="355.78" y1="-339.4" x2="355.78" y2="-822.24" xlink:href="#linear-gradient" id="linear-gradient-23" gradientTransform="translate(91.95 1028.54)"></linearGradient><linearGradient x1="373.37" y1="-339.4" x2="373.37" y2="-822.24" xlink:href="#linear-gradient" id="linear-gradient-24" gradientTransform="translate(86.8 1040.99)"></linearGradient><linearGradient x1="390.65" y1="-339.4" x2="390.65" y2="-822.24" xlink:href="#linear-gradient" id="linear-gradient-25" gradientTransform="translate(81.73 1053.21)"></linearGradient><linearGradient x1="408.25" y1="-339.4" x2="408.25" y2="-822.24" xlink:href="#linear-gradient" id="linear-gradient-26" gradientTransform="translate(76.58 1065.65)"></linearGradient><linearGradient x1="425.85" y1="-339.4" x2="425.85" xlink:href="#linear-gradient" id="linear-gradient-27" gradientTransform="translate(71.43 1078.09)"></linearGradient><linearGradient x1="443.45" y1="-339.4" x2="443.45" y2="-822.24" xlink:href="#linear-gradient" id="linear-gradient-28" gradientTransform="translate(66.27 1090.54)"></linearGradient><linearGradient x1="461.04" y1="-339.4" x2="461.04" y2="-822.24" xlink:href="#linear-gradient" id="linear-gradient-29" gradientTransform="translate(61.12 1102.98)"></linearGradient><linearGradient x1="478.64" y1="-339.4" x2="478.64" y2="-822.24" xlink:href="#linear-gradient" id="linear-gradient-30" gradientTransform="translate(55.96 1115.42)"></linearGradient><linearGradient x1="496.24" y1="-339.4" x2="496.24" y2="-822.24" xlink:href="#linear-gradient" id="linear-gradient-31" gradientTransform="translate(50.81 1127.87)"></linearGradient><linearGradient x1="513.83" y1="-339.4" x2="513.83" y2="-822.24" xlink:href="#linear-gradient" id="linear-gradient-32" gradientTransform="translate(45.65 1140.31)"></linearGradient><linearGradient x1="531.43" y1="-339.4" x2="531.43" y2="-822.24" xlink:href="#linear-gradient" id="linear-gradient-33" gradientTransform="translate(40.5 1152.75)"></linearGradient><linearGradient x1="549.03" y1="-339.4" x2="549.03" y2="-822.24" xlink:href="#linear-gradient" id="linear-gradient-34" gradientTransform="translate(35.35 1165.19)"></linearGradient><linearGradient x1="566.63" y1="-339.4" x2="566.63" y2="-822.24" xlink:href="#linear-gradient" id="linear-gradient-35" gradientTransform="translate(30.19 1177.64)"></linearGradient><linearGradient x1="584.22" y1="-339.4" x2="584.22" y2="-822.24" xlink:href="#linear-gradient" id="linear-gradient-36" gradientTransform="translate(25.04 1190.08)"></linearGradient><linearGradient x1="601.82" y1="-339.4" x2="601.82" y2="-822.24" xlink:href="#linear-gradient" id="linear-gradient-37" gradientTransform="translate(19.88 1202.52)"></linearGradient><linearGradient x1="619.42" y1="-339.4" x2="619.42" y2="-822.24" xlink:href="#linear-gradient" id="linear-gradient-38" gradientTransform="translate(14.73 1214.97)"></linearGradient><linearGradient x1="637.01" y1="-339.4" x2="637.01" y2="-822.24" xlink:href="#linear-gradient" id="linear-gradient-39" gradientTransform="translate(9.58 1227.41)"></linearGradient><linearGradient x1="654.61" y1="-339.4" x2="654.61" y2="-822.24" xlink:href="#linear-gradient" id="linear-gradient-40" gradientTransform="translate(4.42 1239.85)"></linearGradient><linearGradient x1="672.21" y1="-339.4" x2="672.21" y2="-822.24" xlink:href="#linear-gradient" id="linear-gradient-41" gradientTransform="translate(-0.73 1252.3)"></linearGradient><linearGradient x1="689.81" y1="-339.4" x2="689.81" y2="-822.24" xlink:href="#linear-gradient" id="linear-gradient-42" gradientTransform="translate(-5.89 1264.74)"></linearGradient><linearGradient x1="707.4" y1="-339.4" x2="707.4" y2="-822.24" xlink:href="#linear-gradient" id="linear-gradient-43" gradientTransform="translate(-11.04 1277.18)"></linearGradient><linearGradient x1="725" x2="725" y2="-822.24" xlink:href="#linear-gradient" id="linear-gradient-44" gradientTransform="translate(-16.19 1289.63)"></linearGradient><linearGradient x1="742.6" y1="-339.4" x2="742.6" y2="-822.24" xlink:href="#linear-gradient" id="linear-gradient-45" gradientTransform="translate(-21.35 1302.07)"></linearGradient><linearGradient x1="760.19" y1="-339.4" x2="760.19" y2="-822.24" xlink:href="#linear-gradient" id="linear-gradient-46" gradientTransform="translate(-26.5 1314.51)"></linearGradient><linearGradient x1="777.79" y1="-339.4" x2="777.79" y2="-822.24" xlink:href="#linear-gradient" id="linear-gradient-47" gradientTransform="translate(-31.66 1326.95)"></linearGradient><linearGradient x1="795.39" y1="-339.4" x2="795.39" y2="-822.24" xlink:href="#linear-gradient" id="linear-gradient-48" gradientTransform="translate(-36.81 1339.4)"></linearGradient></defs><g><g id="hatter"><g><rect x="229.92" y="220.77" rx="105.87" ry="105.87" width="377" height="373" stroke="#447249" stroke-width="20" stroke-miterlimit="10" fill="none"/><g clip-path="url(#clippath)"><g><circle cx="425.92" cy="418.57" r="247" fill="#BAE3C2"/><path d="M635.56 511.45C640.44 558.25 548.8 606.16 430.88 618.44 312.96 630.72 213.41 602.74 208.54 555.94 203.66 509.14 305.62 560.25 423.54 547.97 541.46 535.69 630.69 464.65 635.57 511.46Z" fill="#FDFDFD" opacity="0.28"/><path d="M444.35 204.1C419.31 205.2 422.09 233.71 444.35 238.24 466.61 242.75 469.39 203.01 444.35 204.1Z" fill="#93DAAC"/><path d="M545.51 210.27C497.16 179.42 488.02 225.33 534.86 262.9 581.7 300.47 611.65 252.46 545.51 210.27Z" fill="#FFFFFF" opacity="0.17"/><path d="M246.84 436.94C217.22 436.94 220.18 482.62 246.84 483 273.5 483.38 276.05 436.94 246.84 436.94Z" fill="#ACD9AF" opacity="0.61"/><path d="M268.29 491.01C231.91 505.22 257.46 559.91 290.39 547.59 323.32 535.27 304.16 477 268.29 491.01Z" fill="#FFFFFF" opacity="0.12"/><path d="M319.33 460.14C301.97 460.14 303.7 489.43 319.33 489.68 334.95 489.92 336.44 460.14 319.33 460.14Z" fill="#ACD9AF" opacity="0.61"/><g opacity="0.55"><path d="M328.32 253.64C333.55 264.79 317.99 271.22 310.78 277.61 300.68 286.56 291.06 302.26 276.49 303.12 273.69 303.29 268.8 302.12 267.34 302.36 261.89 299.13 259.06 293.29 258.19 287.13 256.48 274.89 262.8 264.49 274.2 259.72 286.63 254.52 306.38 253.51 319.63 248.38 323.88 248.73 326.46 249.68 328.31 253.63Z" fill="#FDFDFD"/></g><path d="M538.75 171.57C609.92 210.76 622.98 323.32 622.98 323.32 551.92 225.76 250.5 234.08 250.5 234.08L538.75 171.57Z" fill="#FDFDFD" opacity="0.49"/><path d="M556.58 286.11C531.54 287.22 534.32 315.73 556.58 320.25 578.83 324.76 581.61 285.01 556.58 286.11Z" fill="#93DAAC" opacity="0.61"/></g></g></g></g><g id="Réteg_23"><path d="M519.33 446.56C516.83 443.24 514.29 439.95 511.77 436.65 509.55 433.74 507.32 430.83 505.25 427.82 504.58 426.84 503.9 425.86 503.34 424.81 503.27 424.69 503.21 424.55 503.15 424.43 503.14 423.9 503.08 423.36 503.05 422.83 502.48 414.82 501.14 406.84 498.9 399.13 494.6 384.32 487.01 370.35 476.11 359.36 475.4 358.64 472.23 355.72 470.29 353.94 470.27 351.67 470.26 349.4 470.24 347.13 470.18 339.15 470.12 331.18 470.06 323.2 470.06 322.33 470.05 321.45 470.04 320.58 470.3 320.5 470.56 320.43 470.81 320.36 483.84 316.53 496.8 312.47 509.7 308.2 511.35 307.66 512.99 307.11 514.63 306.55 516.43 305.95 517.17 303.15 515.2 302.18 500.87 295.12 486.55 288.06 472.22 281 468.18 279.01 464.13 277.01 460.09 275.02 460.01 274.98 459.93 274.96 459.85 274.93 459.8 274.91 459.75 274.89 459.7 274.87 459.67 274.87 459.64 274.85 459.61 274.84 459.38 274.76 459.14 274.71 458.88 274.7 438.71 273.92 418.52 273.57 398.34 273.93 393.61 274.02 388.87 274.14 384.14 274.32 381.83 274.41 379.51 274.5 377.2 274.62 376.7 274.64 376.2 274.66 375.7 274.69 374.92 274.75 374.32 275.03 373.63 275.35 372.38 275.94 371.12 276.52 369.87 277.11 361.71 280.95 353.59 284.88 345.52 288.9 336.73 293.27 327.98 297.73 319.23 302.18 317.3 303.16 317.96 305.96 319.8 306.55 327.33 308.98 334.87 311.39 342.43 313.76 340.93 315 339.66 316.52 338.81 318.29 337.35 321.32 336.91 324.65 336.8 327.98 336.68 331.63 336.74 335.29 336.72 338.94 336.7 342.5 336.69 346.07 336.67 349.63 336.67 350.12 336.67 350.61 336.67 351.09 336.44 351.15 336.21 351.22 335.99 351.31 332.51 352.64 330.02 356.1 330.35 359.91 330.48 361.36 330.91 362.71 331.67 363.89 330.77 367.54 329.88 371.18 329.06 374.85 328.4 377.82 327.79 380.81 327.41 383.84 327.2 385.57 327 387.54 327.56 389.24 328.21 391.2 329.72 392.55 331.49 393.46 328.7 400.77 326.96 408.46 326.58 416.29 325.67 434.62 331.45 452.31 339.59 468.5 342.87 475.02 346.55 481.31 350.09 487.68 351.48 490.17 352.84 492.69 354.04 495.28 354.16 495.54 354.28 495.79 354.39 496.05 354.45 496.18 354.5 496.31 354.56 496.45 354.75 496.99 354.99 497.52 355.18 498.07 355.6 499.26 355.92 500.48 356.19 501.71 356.35 502.44 356.49 503.17 356.62 503.9 356.7 504.36 356.77 504.82 356.84 505.28 356.86 505.44 356.89 505.59 356.91 505.75 356.93 505.88 356.95 506.01 356.97 506.14 356.97 506.18 356.97 506.21 356.99 506.26 357.22 508.11 357.4 509.97 357.54 511.83 357.83 515.73 357.94 519.65 357.97 523.56 358.01 529.74 357.82 535.92 357.46 542.09 357.4 543.09 357.34 544.09 357.26 545.09 357.15 546.53 358.53 547.6 359.84 547.67 381.97 548.75 404.13 549.31 426.28 549.13 438.37 549.03 450.47 548.75 462.55 548.05 464.43 547.94 466.31 547.83 468.18 547.67 469.56 547.55 470.76 546.58 470.76 545.09 470.72 534.35 470.65 523.61 470.53 512.87 471.3 512.83 472.06 512.77 472.83 512.69 483.08 511.55 493.39 506.62 497.99 496.93 501.51 489.53 501.88 481.15 500.48 473.18 504.34 471.17 508.2 469.15 511.98 466.98 514.21 465.69 516.41 464.35 518.59 462.97 520.81 461.56 522.95 459.94 523.69 457.28 524.86 453.06 521.69 449.66 519.35 446.56ZM332.03 387.56C332.04 387.64 332.05 387.7 332.05 387.7 332.03 387.68 332.03 387.62 332.03 387.56ZM332.2 388.07C332.2 388.07 332.2 388.07 332.2 388.07 332.2 388.08 332.2 388.09 332.2 388.11 332.2 388.1 332.2 388.08 332.19 388.07ZM347.27 368.83C347.55 369 347.79 369.21 347.99 369.45 347.85 369.63 347.72 369.81 347.59 369.99 347.48 369.6 347.37 369.21 347.26 368.82ZM422.45 297.37C422.49 297.51 422.47 297.52 422.44 297.45 422.44 297.45 422.44 297.42 422.45 297.37ZM470.33 359.55C470.33 359.55 470.33 359.46 470.33 359.41 470.33 359.46 470.34 359.51 470.35 359.55 470.35 359.55 470.34 359.55 470.33 359.55ZM422.47 297.13C422.47 297.13 422.52 297.06 422.55 297.02 422.52 297.06 422.49 297.12 422.47 297.17 422.47 297.15 422.47 297.14 422.47 297.13ZM422.47 297.2C422.47 297.2 422.5 297.18 422.52 297.17 422.51 297.17 422.49 297.19 422.47 297.21 422.47 297.21 422.47 297.21 422.47 297.2ZM422.09 296.92C422.04 296.88 421.87 296.77 421.86 296.77 421.93 296.78 422.01 296.85 422.09 296.92ZM411.99 297.09C411.99 297.09 411.99 297.15 411.98 297.17 411.98 297.12 411.98 297.08 411.99 297.09ZM341.54 330.57C341.54 329.09 341.56 327.61 341.68 326.14 341.71 325.77 341.74 325.41 341.78 325.05 341.78 325.03 341.78 324.99 341.78 324.95 341.78 324.95 341.78 324.95 341.78 324.96 341.78 324.78 341.83 324.6 341.86 324.42 341.99 323.65 342.16 322.88 342.39 322.13 342.49 321.79 342.62 321.45 342.74 321.11 342.74 321.08 342.76 321.06 342.76 321.04 342.76 321.04 342.76 321.03 342.77 321.02 342.85 320.86 342.92 320.69 343 320.53 343.16 320.21 343.34 319.89 343.53 319.59 343.59 319.49 343.66 319.39 343.73 319.28 343.76 319.23 343.91 319.02 343.98 318.91 344.39 318.37 344.9 317.88 345.41 317.44 345.52 317.35 345.62 317.26 345.73 317.17 345.8 317.12 345.88 317.06 345.91 317.04 346.26 316.8 346.61 316.57 346.98 316.36 347.44 316.09 347.92 315.83 348.41 315.61 351.61 316.6 354.82 317.59 358.03 318.56 360.15 319.2 362.26 319.84 364.38 320.47 364.33 327.28 364.28 334.08 364.23 340.89L365.33 351.34C358.53 355.97 352.35 361.49 346.96 367.75 346.86 367.39 346.76 367.04 346.66 366.68 346.41 365.8 346.15 364.92 345.9 364.04 346.91 362.61 347.43 360.7 347.29 358.96 347.13 356.87 346.3 355.02 344.89 353.46 343.94 352.46 342.74 351.71 341.44 351.26 341.47 344.36 341.5 337.45 341.54 330.55ZM335.4 360.89C335.4 360.89 335.34 360.79 335.3 360.67 335.34 360.75 335.41 360.89 335.4 360.89ZM332.15 429.33C332.57 430.44 333 431.55 333.42 432.66L332.62 432.69C332.44 431.59 332.29 430.47 332.15 429.33Z" fill="#FFFFFF"/></g><g id="Réteg_19"><g opacity="0.5"><g clip-path="url(#clippath-1)"><g opacity="0.83"><g><g><rect x="169.36" y="-67.45" width="9.24" height="482.84" fill="url(#linear-gradient)" transform="matrix(0.707107 0.707107 -0.707107 0.707107 173.98 -72.06)"/><rect x="181.8" y="-55" width="9.24" height="482.84" fill="url(#linear-gradient-2)" transform="matrix(0.707107 0.707107 -0.707107 0.707107 186.42 -77.22)"/><rect x="194.24" y="-42.56" width="9.24" height="482.84" fill="url(#linear-gradient-3)" transform="matrix(0.707107 0.707107 -0.707107 0.707107 198.86 -82.37)"/><rect x="206.69" y="-30.12" width="9.24" height="482.84" fill="url(#linear-gradient-4)" transform="matrix(0.707107 0.707107 -0.707107 0.707107 211.31 -87.53)"/><rect x="219.13" y="-17.67" width="9.24" height="482.84" fill="url(#linear-gradient-5)" transform="matrix(0.707107 0.707107 -0.707107 0.707107 223.75 -92.68)"/><rect x="231.57" y="-5.23" width="9.24" height="482.84" fill="url(#linear-gradient-6)" transform="matrix(0.707107 0.707107 -0.707107 0.707107 236.19 -97.83)"/><rect x="244.02" y="7.21" width="9.24" height="482.84" fill="url(#linear-gradient-7)" transform="matrix(0.707107 0.707107 -0.707107 0.707107 248.64 -102.99)"/><rect x="256.46" y="19.66" width="9.24" height="482.84" fill="url(#linear-gradient-8)" transform="matrix(0.707107 0.707107 -0.707107 0.707107 261.08 -108.14)"/><rect x="268.9" y="32.1" width="9.24" height="482.84" fill="url(#linear-gradient-9)" transform="matrix(0.707107 0.707107 -0.707107 0.707107 273.52 -113.3)"/><rect x="281.35" y="44.54" width="9.24" height="482.84" fill="url(#linear-gradient-10)" transform="matrix(0.707107 0.707107 -0.707107 0.707107 285.96 -118.45)"/><rect x="293.79" y="56.99" width="9.24" height="482.84" fill="url(#linear-gradient-11)" transform="matrix(0.707107 0.707107 -0.707107 0.707107 298.41 -123.6)"/><rect x="306.23" y="69.43" width="9.24" height="482.84" fill="url(#linear-gradient-12)" transform="matrix(0.707107 0.707107 -0.707107 0.707107 310.85 -128.76)"/><rect x="318.68" y="81.87" width="9.24" height="482.84" fill="url(#linear-gradient-13)" transform="matrix(0.707107 0.707107 -0.707107 0.707107 323.29 -133.91)"/><rect x="331.12" y="94.31" width="9.24" height="482.84" fill="url(#linear-gradient-14)" transform="matrix(0.707107 0.707107 -0.707107 0.707107 335.74 -139.07)"/><rect x="343.56" y="106.76" width="9.24" height="482.84" fill="url(#linear-gradient-15)" transform="matrix(0.707107 0.707107 -0.707107 0.707107 348.18 -144.22)"/><rect x="356" y="119.2" width="9.24" height="482.84" fill="url(#linear-gradient-16)" transform="matrix(0.707107 0.707107 -0.707107 0.707107 360.62 -149.37)"/><rect x="368.45" y="131.64" width="9.24" height="482.84" fill="url(#linear-gradient-17)" transform="matrix(0.707107 0.707107 -0.707107 0.707107 373.07 -154.53)"/><rect x="380.89" y="144.09" width="9.24" height="482.84" fill="url(#linear-gradient-18)" transform="matrix(0.707107 0.707107 -0.707107 0.707107 385.51 -159.68)"/><rect x="393.33" y="156.53" width="9.24" height="482.84" fill="url(#linear-gradient-19)" transform="matrix(0.707107 0.707107 -0.707107 0.707107 397.95 -164.84)"/><rect x="405.78" y="168.97" width="9.24" height="482.84" fill="url(#linear-gradient-20)" transform="matrix(0.707107 0.707107 -0.707107 0.707107 410.4 -169.99)"/><rect x="418.22" y="181.42" width="9.24" height="482.84" fill="url(#linear-gradient-21)" transform="matrix(0.707107 0.707107 -0.707107 0.707107 422.84 -175.15)"/><rect x="430.66" y="193.86" width="9.24" height="482.84" fill="url(#linear-gradient-22)" transform="matrix(0.707107 0.707107 -0.707107 0.707107 435.28 -180.3)"/><rect x="443.11" y="206.3" width="9.24" height="482.84" fill="url(#linear-gradient-23)" transform="matrix(0.707107 0.707107 -0.707107 0.707107 447.72 -185.45)"/><rect x="455.55" y="218.75" width="9.24" height="482.84" fill="url(#linear-gradient-24)" transform="matrix(0.707107 0.707107 -0.707107 0.707107 460.17 -190.61)"/></g><g><rect x="467.77" y="230.97" width="9.24" height="482.84" fill="url(#linear-gradient-25)" transform="matrix(0.707107 0.707107 -0.707107 0.707107 472.39 -195.67)"/><rect x="480.21" y="243.41" width="9.24" height="482.84" fill="url(#linear-gradient-26)" transform="matrix(0.707107 0.707107 -0.707107 0.707107 484.83 -200.82)"/><rect x="492.66" y="255.85" width="9.24" height="482.84" fill="url(#linear-gradient-27)" transform="matrix(0.707107 0.707107 -0.707107 0.707107 497.27 -205.98)"/><rect x="505.1" y="268.29" width="9.24" height="482.84" fill="url(#linear-gradient-28)" transform="matrix(0.707107 0.707107 -0.707107 0.707107 509.72 -211.13)"/><rect x="517.54" y="280.74" width="9.24" height="482.84" fill="url(#linear-gradient-29)" transform="matrix(0.707107 0.707107 -0.707107 0.707107 522.16 -216.29)"/><rect x="529.98" y="293.18" width="9.24" height="482.84" fill="url(#linear-gradient-30)" transform="matrix(0.707107 0.707107 -0.707107 0.707107 534.6 -221.44)"/><rect x="542.43" y="305.62" width="9.24" height="482.84" fill="url(#linear-gradient-31)" transform="matrix(0.707107 0.707107 -0.707107 0.707107 547.05 -226.59)"/><rect x="554.87" y="318.07" width="9.24" height="482.84" fill="url(#linear-gradient-32)" transform="matrix(0.707107 0.707107 -0.707107 0.707107 559.49 -231.75)"/><rect x="567.31" y="330.51" width="9.24" height="482.84" fill="url(#linear-gradient-33)" transform="matrix(0.707107 0.707107 -0.707107 0.707107 571.93 -236.9)"/><rect x="579.76" y="342.95" width="9.24" height="482.84" fill="url(#linear-gradient-34)" transform="matrix(0.707107 0.707107 -0.707107 0.707107 584.38 -242.06)"/><rect x="592.2" y="355.4" width="9.24" height="482.84" fill="url(#linear-gradient-35)" transform="matrix(0.707107 0.707107 -0.707107 0.707107 596.82 -247.21)"/><rect x="604.64" y="367.84" width="9.24" height="482.84" fill="url(#linear-gradient-36)" transform="matrix(0.707107 0.707107 -0.707107 0.707107 609.26 -252.36)"/><rect x="617.09" y="380.28" width="9.24" height="482.84" fill="url(#linear-gradient-37)" transform="matrix(0.707107 0.707107 -0.707107 0.707107 621.7 -257.52)"/><rect x="629.53" y="392.73" width="9.24" height="482.84" fill="url(#linear-gradient-38)" transform="matrix(0.707107 0.707107 -0.707107 0.707107 634.15 -262.67)"/><rect x="641.97" y="405.17" width="9.24" height="482.84" fill="url(#linear-gradient-39)" transform="matrix(0.707107 0.707107 -0.707107 0.707107 646.59 -267.83)"/><rect x="654.42" y="417.61" width="9.24" height="482.84" fill="url(#linear-gradient-40)" transform="matrix(0.707107 0.707107 -0.707107 0.707107 659.03 -272.98)"/><rect x="666.86" y="430.05" width="9.24" height="482.84" fill="url(#linear-gradient-41)" transform="matrix(0.707107 0.707107 -0.707107 0.707107 671.48 -278.13)"/><rect x="679.3" y="442.5" width="9.24" height="482.84" fill="url(#linear-gradient-42)" transform="matrix(0.707107 0.707107 -0.707107 0.707107 683.92 -283.29)"/><rect x="691.74" y="454.94" width="9.24" height="482.84" fill="url(#linear-gradient-43)" transform="matrix(0.707107 0.707107 -0.707107 0.707107 696.36 -288.44)"/><rect x="704.19" y="467.38" width="9.24" height="482.84" fill="url(#linear-gradient-44)" transform="matrix(0.707107 0.707107 -0.707107 0.707107 708.81 -293.6)"/><rect x="716.63" y="479.83" width="9.24" height="482.84" fill="url(#linear-gradient-45)" transform="matrix(0.707107 0.707107 -0.707107 0.707107 721.25 -298.75)"/><rect x="729.07" y="492.27" width="9.24" height="482.84" fill="url(#linear-gradient-46)" transform="matrix(0.707107 0.707107 -0.707107 0.707107 733.69 -303.91)"/><rect x="741.52" y="504.71" width="9.24" height="482.84" fill="url(#linear-gradient-47)" transform="matrix(0.707107 0.707107 -0.707107 0.707107 746.14 -309.06)"/><rect x="753.96" y="517.16" width="9.24" height="482.84" fill="url(#linear-gradient-48)" transform="matrix(0.707107 0.707107 -0.707107 0.707107 758.58 -314.21)"/></g></g></g></g></g></g><g id="new_elements"><g><g><path d="M367.61 351.98C367.59 351.51 367.6 351.04 367.62 350.57 367.62 350.51 367.62 350.46 367.61 350.4 367.61 350.21 367.61 350.03 367.61 349.84 359.65 354.92 352.48 361.2 346.36 368.45 348.61 368.94 349.3 371.52 348.46 373.31 348.5 373.5 348.53 373.7 348.54 373.9 354.07 366.87 360.67 360.71 368.07 355.66 367.83 354.46 367.67 353.23 367.62 351.98Z" stroke="#447249" stroke-width="2" stroke-miterlimit="10" fill="#447249"/><path d="M519.33 446.56C516.83 443.24 514.29 439.95 511.77 436.65 509.55 433.74 507.32 430.83 505.25 427.82 504.58 426.84 503.9 425.86 503.34 424.81 503.27 424.69 503.21 424.55 503.15 424.43 503.14 423.9 503.08 423.36 503.05 422.83 502.48 414.82 501.14 406.84 498.9 399.13 494.6 384.32 487.01 370.35 476.11 359.36 475.16 358.41 469.91 353.58 468.91 352.69 468.02 354.24 471.26 359.55 470.13 360.76 470.74 361.33 471.35 361.9 471.92 362.47 472.59 363.13 473.24 363.8 473.89 364.49 472.19 365.8 470.48 367.1 468.78 368.41 468.36 368.73 468.04 369.04 467.89 369.56 467.76 370.02 467.82 370.64 468.08 371.05 468.35 371.46 468.74 371.83 469.24 371.94 469.71 372.05 470.33 372.05 470.73 371.75 472.64 370.29 474.55 368.83 476.45 367.36 476.76 367.73 477.08 368.09 477.39 368.46 477.66 368.79 477.93 369.12 478.19 369.45 478.35 369.65 478.51 369.85 478.66 370.05 478.66 370.05 478.84 370.28 478.92 370.39 483.39 376.24 487.09 382.68 490 389.44 490 389.44 490.18 389.86 490.2 389.91 490.27 390.07 490.33 390.23 490.4 390.39 490.58 390.84 490.76 391.28 490.94 391.73 491.29 392.63 491.63 393.53 491.96 394.44 492.6 396.23 493.19 398.04 493.74 399.86 494.84 403.56 495.73 407.32 496.43 411.12 497.16 415.12 497.57 418.41 497.88 422.56 497.99 424.07 497.98 425.45 498.61 426.84 499.03 427.77 499.61 428.64 500.17 429.49 504.29 435.71 509.07 441.5 513.58 447.44 514.71 448.93 515.84 450.43 516.95 451.95 517.45 452.63 517.98 453.3 518.39 454.04 518.44 454.13 518.49 454.23 518.53 454.33 518.53 454.38 518.67 454.73 518.68 454.77 518.7 454.83 518.75 455.2 518.77 455.23 518.77 455.39 518.77 455.54 518.77 455.7 518.77 455.08 518.56 456.27 518.68 456.09 518.59 456.3 518.46 456.51 518.34 456.7 518.01 457.19 518.17 456.91 518.23 456.84 517.38 457.85 516.11 458.47 515.01 459.16 512.97 460.44 510.9 461.69 508.81 462.88 504.7 465.23 500.49 467.4 496.29 469.59 495.24 470.14 494.87 471.42 495.11 472.5 496.54 479.16 496.62 486.25 494.24 492.71 493.68 494.23 492.92 495.71 492.03 497.1 491.82 497.43 491.61 497.75 491.38 498.06 491.31 498.15 490.66 498.95 491.2 498.32 490.91 498.66 490.64 499 490.35 499.33 489.72 500.02 489.04 500.67 488.33 501.28 488.14 501.44 487.95 501.59 487.76 501.75 487.73 501.77 487.72 501.78 487.71 501.79 487.68 501.81 487.66 501.83 487.62 501.86 487.18 502.18 486.74 502.5 486.28 502.8 485.41 503.37 484.51 503.89 483.58 504.37 483.11 504.61 482.64 504.84 482.16 505.06 482.07 505.1 481.66 505.28 481.62 505.29 481.37 505.39 481.13 505.49 480.88 505.58 478.61 506.44 476.24 507.05 473.85 507.43 473.69 507.46 473.53 507.48 473.37 507.5 473.35 507.5 473.34 507.5 473.33 507.5 473 507.54 472.67 507.58 472.35 507.61 471.68 507.68 471.01 507.72 470.34 507.75 468.95 507.81 467.55 507.8 466.16 507.71 464.58 507.61 463.55 507.49 462.2 507.25 460.72 506.99 459.25 506.65 457.81 506.23 450.01 504 442.99 499.56 436.93 494.12 435.89 493.19 434.31 493.1 433.29 494.12 432.34 495.07 432.25 496.83 433.29 497.76 442.2 505.76 453.41 511.89 465.4 512.81 465.51 522.78 465.58 532.74 465.62 542.71 460.64 543.07 455.64 543.27 450.66 543.46 434.01 544.08 417.34 544.14 400.68 543.87 393.42 543.75 386.16 543.61 378.9 543.36 378.91 543.4 378.93 543.36 378.95 543.36 378.87 543.33 378.79 543.39 378.71 543.36 376.45 543.28 374.19 543.45 371.93 543.36 372.36 542.97 372.76 543.76 373.18 543.36 371.51 543.06 369.84 543.43 368.12 543.36 368.02 543.44 367.93 543.28 367.83 543.36 367.45 543.68 367.06 543.05 366.67 543.36 366.57 543.44 366.46 543.28 366.36 543.36 366.35 543.37 366.32 543.34 366.29 543.36 366.29 543.36 366.28 543.36 366.27 543.36 365.05 543.31 363.83 542.7 362.61 542.65 362.69 541.48 362.76 540.3 362.83 539.13 363.33 538.67 362.7 538.21 363.2 537.75 363.18 536.29 363.24 534.5 363.2 532.59L363.08 533.65C363.14 531.95 363.18 530.26 363.2 528.56 363.44 528.37 362.96 528.17 363.2 527.98 363.2 526.4 363.14 524.54 363.2 522.95L363.2 523.63C363.16 519.78 363.02 515.94 362.74 512.11 362.29 505.83 361.53 499.57 359 493.77 356.64 488.33 353.51 483.23 350.61 478.08 342.51 463.7 335.33 449.15 332.66 432.7 331.95 428.3 331.61 423.6 331.67 418.99 331.7 416.96 331.81 414.94 332.01 412.92 332.05 412.5 332.1 412.07 332.15 411.65 332.18 411.44 332.2 411.23 332.23 411.02 332.24 410.93 332.27 410.75 332.28 410.69 332.43 409.72 332.58 408.74 332.77 407.78 333.7 402.88 335.09 398.26 336.9 393.83 335.4 393.83 334.05 393.41 332.61 392.79 332.37 392.69 332.15 392.53 331.96 392.34 328.91 399.98 327.03 408.07 326.62 416.31 325.71 434.64 331.49 452.33 339.63 468.52 342.91 475.04 346.59 481.33 350.13 487.7 351.52 490.19 352.88 492.71 354.08 495.3 354.2 495.56 354.32 495.81 354.43 496.07 354.49 496.2 354.54 496.33 354.6 496.47 354.79 497.01 355.03 497.54 355.22 498.09 355.64 499.28 355.96 500.5 356.23 501.73 356.39 502.46 356.53 503.19 356.66 503.92 356.74 504.38 356.81 504.84 356.88 505.3 356.9 505.46 356.93 505.61 356.95 505.77 356.97 505.9 356.99 506.03 357.01 506.16 357.01 506.2 357.01 506.23 357.03 506.28 357.26 508.13 357.44 509.99 357.58 511.85 357.87 515.75 357.98 519.67 358.01 523.58 358.05 529.76 357.86 535.94 357.5 542.11 357.44 543.11 357.38 544.11 357.3 545.11 357.19 546.55 358.57 547.62 359.88 547.69 382.01 548.77 404.17 549.33 426.32 549.15 438.41 549.05 450.51 548.77 462.59 548.07 464.47 547.96 466.35 547.85 468.22 547.69 469.6 547.57 470.8 546.6 470.8 545.11 470.76 534.37 470.69 523.63 470.57 512.89 471.34 512.85 472.1 512.79 472.87 512.71 483.12 511.57 493.43 506.64 498.03 496.95 501.55 489.55 501.92 481.17 500.52 473.2 504.38 471.19 508.24 469.17 512.02 467 514.25 465.71 516.45 464.37 518.63 462.99 520.85 461.58 522.99 459.96 523.73 457.3 524.9 453.08 521.73 449.68 519.39 446.58Z" stroke="#447249" stroke-width="2" stroke-miterlimit="10" fill="#447249"/><path d="M473.35 507.48C473.76 507.42 473.48 507.46 473.35 507.48L473.35 507.48Z" stroke="#447249" stroke-width="2" stroke-miterlimit="10" fill="#447249"/><path d="M409.79 379.35C409.79 379.35 409.79 379.35 409.79 379.35 409.85 379.35 409.91 379.35 409.95 379.34 409.9 379.34 409.84 379.34 409.79 379.35Z" stroke="#447249" stroke-width="2" stroke-miterlimit="10" fill="#447249"/></g><g><path d="M486.92 293.77C486.42 293.52 484.95 292.79 482.94 291.78 482.91 291.8 482.88 291.83 482.84 291.85L486.92 293.76Z" stroke="#447249" stroke-width="2" stroke-miterlimit="10" fill="#447249"/><path d="M452.36 378.18C455.95 376.7 459.42 374.95 462.67 372.85 464.43 371.72 466.12 370.48 467.73 369.14 468.38 368.6 469.04 368.05 469.62 367.43 470.11 366.9 470.35 366.3 470.37 365.56 470.38 364.93 470.37 364.3 470.36 363.67 470.35 362.12 470.34 360.56 470.33 359.01 470.3 355.04 470.27 351.08 470.24 347.11 470.18 339.13 470.12 331.16 470.06 323.18 470.06 322.31 470.05 321.43 470.04 320.56 470.3 320.48 470.56 320.41 470.81 320.34 483.84 316.51 496.8 312.45 509.7 308.18 511.35 307.64 512.99 307.09 514.63 306.53 516.43 305.93 517.17 303.13 515.2 302.16 500.87 295.1 486.55 288.04 472.22 280.98 468.18 278.99 464.13 276.99 460.09 275 460.01 274.96 459.93 274.94 459.85 274.91 459.8 274.89 459.75 274.87 459.7 274.85 459.67 274.85 459.64 274.83 459.61 274.82 459.38 274.74 459.14 274.69 458.88 274.68 438.71 273.9 418.52 273.55 398.34 273.91 393.61 274 388.87 274.12 384.14 274.3 381.83 274.39 379.51 274.48 377.2 274.6 376.7 274.62 376.2 274.64 375.7 274.67 374.92 274.73 374.32 275.01 373.63 275.33 372.38 275.92 371.12 276.5 369.87 277.09 361.71 280.93 353.59 284.86 345.52 288.88 336.73 293.25 327.98 297.71 319.23 302.16 317.3 303.14 317.96 305.94 319.8 306.53 327.33 308.96 334.87 311.37 342.43 313.74 340.93 314.98 339.66 316.5 338.81 318.27 337.35 321.3 336.91 324.63 336.8 327.96 336.68 331.61 336.74 335.27 336.72 338.92 336.7 342.48 336.69 346.05 336.67 349.61 336.67 350.1 336.67 350.59 336.67 351.07 336.44 351.13 336.21 351.2 335.99 351.29 332.51 352.62 330.02 356.08 330.35 359.89 330.48 361.34 330.91 362.69 331.67 363.87 330.77 367.52 329.88 371.16 329.06 374.83 328.4 377.8 327.79 380.79 327.41 383.82 327.2 385.55 327 387.52 327.56 389.22 328.44 391.88 330.92 393.43 333.45 394.27 336.02 395.12 338.92 395.32 341.6 395 344.19 394.69 347.08 394.05 348.97 392.1 351.03 389.98 351.06 386.82 350.72 384.08 350 378.17 348.29 372.38 346.67 366.67 346.42 365.79 346.16 364.91 345.91 364.03 346.92 362.6 347.44 360.69 347.3 358.95 347.14 356.86 346.31 355 344.9 353.45 343.95 352.45 342.75 351.7 341.45 351.25 341.48 344.35 341.51 337.44 341.55 330.54 341.55 329.06 341.57 327.58 341.69 326.11 341.72 325.74 341.75 325.38 341.79 325.02 341.79 325 341.79 324.96 341.79 324.92 341.79 324.92 341.79 324.92 341.79 324.93 341.79 324.75 341.84 324.57 341.87 324.39 342 323.62 342.17 322.85 342.4 322.1 342.5 321.76 342.63 321.42 342.75 321.08 342.75 321.05 342.77 321.03 342.77 321.01 342.77 321.01 342.77 321 342.78 320.99 342.86 320.83 342.93 320.66 343.01 320.5 343.17 320.18 343.35 319.86 343.54 319.56 343.6 319.46 343.67 319.36 343.74 319.25 343.77 319.2 343.92 318.99 343.99 318.88 344.4 318.34 344.91 317.85 345.42 317.41 345.53 317.32 345.63 317.23 345.74 317.14 345.81 317.09 345.89 317.03 345.92 317.01 346.27 316.77 346.62 316.54 346.99 316.33 347.45 316.06 347.93 315.8 348.42 315.58 351.62 316.57 354.83 317.56 358.04 318.53 360.16 319.17 362.27 319.81 364.39 320.44 364.34 327.25 364.29 334.05 364.24 340.86 364.18 348.5 364.13 356.15 364.07 363.79 364.07 365.02 363.85 366.46 364.82 367.4 365.03 367.6 365.26 367.78 365.48 367.97 366.72 369 368.02 369.95 369.35 370.84 373.98 373.93 379.08 376.33 384.31 378.25L389.79 380.07C392.19 380.78 394.62 381.37 397.07 381.89 400.34 381.92 403.61 382.56 406.88 383.47 409.25 383.74 411.62 383.94 413.99 384.07 424.16 384.61 444.75 380.84 444.97 380.77L452.36 378.15ZM388.13 381.3 345.75 382.96C345.82 383.35 345.87 383.75 345.93 384.14 345.93 384.2 345.95 384.27 345.95 384.33 345.97 384.53 345.99 384.72 346.01 384.92 346.07 385.56 346.1 386.2 346.08 386.84 346.08 387.06 346.05 387.28 346.04 387.5 346.03 387.56 346.02 387.62 346.01 387.68 345.97 387.88 345.92 388.07 345.85 388.27 345.85 388.3 345.83 388.32 345.82 388.35 345.8 388.39 345.78 388.43 345.76 388.47 345.73 388.52 345.7 388.57 345.67 388.62 345.57 388.72 345.47 388.83 345.37 388.93 345.32 388.97 345.27 389 345.23 389.04 345.04 389.16 344.84 389.28 344.64 389.38 344.55 389.43 344.45 389.47 344.36 389.52 343.86 389.7 343.36 389.87 342.84 389.99 342.57 390.06 342.29 390.11 342.01 390.16 341.89 390.18 341.77 390.2 341.65 390.22 341.63 390.22 341.61 390.22 341.59 390.22 340.98 390.29 340.36 390.33 339.74 390.34 339.13 390.35 338.52 390.34 337.91 390.29 337.63 390.27 337.36 390.24 337.08 390.21 337.08 390.21 337.08 390.21 337.07 390.21 336.9 390.18 336.73 390.16 336.57 390.12 335.98 390.01 335.4 389.87 334.83 389.69 334.59 389.61 334.35 389.52 334.12 389.44 334 389.38 333.87 389.32 333.75 389.26 333.53 389.14 333.31 389.02 333.09 388.88 333.01 388.83 332.93 388.77 332.86 388.72 332.69 388.57 332.53 388.42 332.38 388.25 332.34 388.19 332.29 388.12 332.27 388.09 332.23 388.02 332.19 387.95 332.17 387.89 332.18 387.94 332.2 387.99 332.21 388.05 332.21 388.05 332.21 388.05 332.21 388.05 332.18 387.94 332.13 387.83 332.1 387.72 332.1 387.72 332.1 387.72 332.1 387.71 332.09 387.67 332.08 387.65 332.09 387.65 332.07 387.57 332.05 387.49 332.04 387.4 331.97 386.6 332.01 385.78 332.08 384.98 332.1 384.74 332.12 384.5 332.15 384.26 332.16 384.13 332.18 384.01 332.19 383.88 332.19 383.84 332.21 383.74 332.22 383.66 332.22 383.61 332.23 383.57 332.24 383.55 332.26 383.41 332.28 383.27 332.3 383.13 332.35 382.82 332.4 382.5 332.45 382.19 332.69 380.79 332.97 379.4 333.26 378.01 334.03 374.4 334.9 370.8 335.78 367.21 335.78 367.21 335.78 367.21 335.78 367.21 336.07 367.32 336.37 367.43 336.67 367.51 338.45 367.99 340.25 367.86 341.87 367.24 343.38 372.42 344.87 377.65 345.78 382.97ZM341.51 356.85C341.59 356.93 341.66 357.03 341.74 357.12 341.74 357.12 341.75 357.14 341.76 357.14 341.94 357.4 342.09 357.68 342.24 357.96 342.28 358.06 342.31 358.16 342.34 358.26 342.41 358.5 342.46 358.74 342.51 358.98 342.51 359.12 342.53 359.27 342.53 359.41 342.53 359.54 342.53 359.67 342.52 359.79 342.52 359.81 342.52 359.83 342.52 359.85 342.47 360.06 342.44 360.27 342.37 360.48 342.34 360.58 342.3 360.68 342.27 360.79 342.26 360.82 342.25 360.85 342.23 360.87 342.11 361.11 341.97 361.33 341.83 361.55 341.83 361.55 341.81 361.57 341.8 361.58 341.72 361.67 341.65 361.76 341.56 361.85 341.37 362.05 341.14 362.22 340.94 362.41 341.06 362.3 341.12 362.24 341.15 362.21 341.1 362.25 340.98 362.36 340.9 362.41 340.76 362.5 340.63 362.58 340.48 362.66 340.4 362.7 340.32 362.74 340.24 362.78 340.22 362.78 340.21 362.79 340.19 362.8 339.93 362.89 339.66 362.95 339.39 363.01 339.28 363.01 339.16 363.03 339.05 363.03 338.82 363.03 338.59 363.02 338.36 363 338.36 363 338.36 363 338.36 363 338.24 362.97 338.11 362.95 337.99 362.92 337.85 362.88 337.7 362.84 337.56 362.79 337.53 362.78 337.45 362.75 337.38 362.72 337.33 362.7 337.28 362.67 337.25 362.66 337.14 362.6 337.03 362.54 336.92 362.48 336.81 362.42 336.7 362.35 336.6 362.28 336.58 362.27 336.56 362.25 336.54 362.24 336.41 362.11 336.26 361.98 336.12 361.85 336.02 361.71 335.91 361.59 335.78 361.48 335.64 361.28 335.51 361.07 335.4 360.85 335.37 360.79 335.35 360.73 335.32 360.68 335.32 360.67 335.32 360.67 335.31 360.66 335.27 360.51 335.23 360.34 335.22 360.3 335.18 360.16 335.15 360.01 335.12 359.87 335.12 359.87 335.12 359.86 335.12 359.84 335.11 359.51 335.12 359.19 335.12 358.86 335.12 358.84 335.12 358.83 335.12 358.81 335.16 358.63 335.2 358.45 335.25 358.27 335.28 358.15 335.33 358.03 335.37 357.91 335.39 357.86 335.43 357.76 335.45 357.73 335.58 357.48 335.74 357.25 335.89 357.02 336 356.89 336.12 356.76 336.24 356.64 336.33 356.55 336.43 356.47 336.52 356.38 336.72 356.25 336.92 356.11 337.13 356 337.2 355.96 337.27 355.93 337.34 355.9 337.4 355.88 337.47 355.85 337.53 355.83 337.79 355.75 338.05 355.7 338.31 355.63 338.44 355.63 338.57 355.61 338.7 355.61 338.84 355.61 338.99 355.61 339.13 355.62 339.16 355.62 339.18 355.62 339.21 355.62 339.46 355.67 339.71 355.72 339.95 355.8 339.99 355.81 340.09 355.85 340.17 355.88 340.23 355.91 340.28 355.93 340.31 355.95 340.44 356.02 340.57 356.09 340.7 356.17 340.75 356.2 340.92 356.32 341 356.38 341.05 356.42 341.09 356.45 341.11 356.47 341.24 356.59 341.37 356.72 341.5 356.85ZM464.47 365.66C464.14 365.94 463.8 366.21 463.46 366.47 463.42 366.5 463.37 366.54 463.33 366.57 463.11 366.74 462.88 366.91 462.65 367.07 461.6 367.84 460.52 368.56 459.41 369.25 458.04 370.1 456.64 370.89 455.21 371.62 454.42 372.03 453.61 372.42 452.8 372.8 452.39 372.99 451.98 373.18 451.57 373.36 451.36 373.45 451.16 373.54 450.95 373.63 450.84 373.68 450.72 373.72 450.61 373.77 446.34 375.52 441.9 376.84 437.38 377.78 436.07 378.05 434.75 378.29 433.43 378.5 433.14 378.55 432.85 378.59 432.56 378.63 432.38 378.66 432.21 378.68 432.03 378.71 432.01 378.71 431.99 378.71 431.97 378.71 431.97 378.71 431.97 378.71 431.95 378.71 431.22 378.8 430.5 378.89 429.77 378.97 426.71 379.29 423.64 379.46 420.57 379.48 417.33 379.5 414.09 379.37 410.86 379.11 409.27 378.98 407.69 378.82 406.1 378.63 405.8 378.59 405.5 378.56 405.2 378.51 405.13 378.5 405.06 378.49 405.03 378.49 404.84 378.46 404.66 378.44 404.47 378.41 403.73 378.3 403 378.19 402.27 378.06 397.27 377.22 392.33 376.01 387.53 374.38 386.48 374.02 385.43 373.64 384.39 373.24 383.94 373.07 383.49 372.89 383.04 372.7 382.85 372.62 382.66 372.54 382.47 372.47 382.34 372.42 382.21 372.36 382.09 372.31 380.45 371.6 378.83 370.83 377.24 370 374.94 368.8 372.71 367.47 370.59 365.97 370.47 365.88 370.35 365.79 370.23 365.7L370.36 365.61C370.32 365.27 370.29 363.64 370.27 361.39 369.8 361.7 369.33 362 368.85 362.31 368.86 360.82 368.87 359.33 368.88 357.84 369.06 357.8 369.24 357.74 369.4 357.64L369.7 357.1C369.7 357.1 369.7 357.14 369.7 357.16 369.7 357.25 369.7 357.37 369.7 357.21 369.7 357.52 369.7 357.76 369.7 357.1 369.7 357.1 369.7 357.1 369.7 357.1 369.72 357.08 369.73 357.07 369.72 357.09 369.72 357.09 369.72 357.09 369.7 357.1 369.7 357.05 369.7 357.08 369.7 357.1 369.7 356.95 369.7 356.95 369.7 357 369.7 356.94 369.7 356.99 369.7 357.06 369.7 356.45 369.7 356.75 369.7 357.09 369.65 356.83 369.6 345.14 369.55 345.18 369.36 345.32 369.17 345.46 368.98 345.6 369.02 339.66 369.07 333.73 369.11 327.79 369.12 325.83 369.14 323.88 369.15 321.92 378.35 324.62 387.59 327.21 396.86 329.66 400.12 330.52 403.38 331.36 406.64 332.18 408.35 332.61 410.06 333.03 411.77 333.45 413.44 333.86 415.18 334.47 416.88 334.65 417.74 334.74 418.67 334.4 419.51 334.2 420.23 334.03 420.94 333.85 421.66 333.67 423.05 333.33 424.44 332.98 425.83 332.63 428.71 331.91 431.59 331.17 434.47 330.43 444.77 327.76 455.02 324.94 465.24 321.98 465.28 326.82 465.31 331.65 465.35 336.49 465.4 343.42 465.45 350.34 465.5 357.27 465.52 359.75 465.54 362.23 465.56 364.72 465.2 365.05 464.82 365.38 464.45 365.7ZM368.93 353.66C368.93 352.4 368.95 351.13 368.96 349.87 369.29 349.67 369.31 354.01 369.48 356.05L368.93 353.66ZM473.49 314.56C461.13 318.24 448.72 321.73 436.25 324.99 429.92 326.65 423.57 328.25 417.21 329.8 404.49 326.76 391.85 323.41 379.28 319.83 371.77 317.69 364.29 315.47 356.82 313.19 359.74 312.52 362.66 311.87 365.59 311.22 372.72 309.63 379.86 308.06 387 306.49 394.53 304.83 402.06 303.16 409.59 301.46 410.96 302.45 412.71 303.05 414.28 303.32 417.63 303.9 421.57 303.71 424.47 301.75 426.02 300.71 427.34 299.09 427.22 297.12 427.1 295.02 425.65 293.44 423.9 292.43 421 290.83 417.56 290.56 414.34 291.08 411.28 291.57 407.28 293.55 407.21 297.1 400.82 298.54 394.42 299.96 388.02 301.37 380.72 302.98 373.42 304.58 366.13 306.21 362.6 307 359.06 307.79 355.53 308.58 353.08 309.13 350.63 309.71 348.27 310.57 346.21 309.93 344.15 309.29 342.1 308.65 336.95 307.03 331.82 305.39 326.68 303.74 338.87 297.55 351.08 291.37 363.41 285.45 367.63 283.42 371.86 281.43 376.1 279.45 397.26 278.4 418.47 278.38 439.64 278.87 445.86 279.02 452.08 279.21 458.3 279.45 460.16 280.37 475.41 288.02 482.94 291.79 482.99 291.75 483.05 291.72 483.1 291.67 488.95 294.56 494.81 297.44 500.66 300.33 503.01 301.49 505.36 302.65 507.71 303.81 496.35 307.56 484.95 311.16 473.49 314.58ZM412.01 297.25C412.01 297.25 412.01 297.25 412.01 297.25 412.03 297.22 412.04 297.19 412.06 297.17 412.15 297.09 412.24 296.99 412.33 296.9 412.33 296.9 412.34 296.89 412.35 296.88 412.46 296.81 412.56 296.74 412.67 296.67 412.88 296.54 413.09 296.43 413.31 296.33 413.38 296.3 413.77 296.05 413.43 296.27 413.11 296.48 413.48 296.25 413.57 296.22 414.12 296.02 414.69 295.87 415.27 295.76 415.38 295.74 415.49 295.72 415.6 295.7 415.6 295.7 415.6 295.7 415.61 295.7 415.67 295.7 415.73 295.69 415.79 295.68 416.1 295.65 416.41 295.63 416.72 295.62 417.38 295.6 418.03 295.63 418.68 295.7 418.68 295.7 418.68 295.7 418.68 295.7 418.68 295.7 418.69 295.7 418.7 295.7 418.86 295.73 419.03 295.76 419.19 295.79 419.51 295.86 419.83 295.93 420.15 296.03 420.29 296.07 421.04 296.25 421.05 296.35 421.05 296.36 420.5 296.09 420.91 296.3 421.09 296.39 421.27 296.48 421.45 296.58 421.61 296.67 421.75 296.77 421.91 296.86 422.02 296.93 422.06 296.95 422.07 296.95 422.17 297.05 422.27 297.18 422.34 297.26 422.34 297.26 422.34 297.26 422.34 297.27 422.34 297.27 422.34 297.27 422.34 297.27 422.34 297.27 422.34 297.27 422.34 297.27 422.34 297.27 422.34 297.27 422.34 297.27 422.34 297.27 422.34 297.27 422.34 297.27 422.34 297.27 422.34 297.27 422.34 297.27 422.34 297.27 422.34 297.26 422.35 297.25 422.35 297.25 422.35 297.25 422.35 297.25 422.35 297.25 422.36 297.25 422.37 297.24 422.37 297.24 422.37 297.24 422.37 297.23 422.37 297.23 422.37 297.23 422.37 297.23 422.37 297.23 422.36 297.22 422.35 297.21 422.35 297.19 422.36 297.17 422.38 297.15 422.38 297.15 422.38 297.18 422.38 297.22 422.39 297.2 422.4 297.18 422.42 297.16 422.42 297.16 422.42 297.16 422.42 297.18 422.42 297.2 422.42 297.21 422.42 297.22 422.42 297.22 422.42 297.22 422.42 297.23 422.42 297.23 422.42 297.23 422.42 297.23 422.42 297.23 422.42 297.25 422.42 297.25 422.42 297.25 422.42 297.25 422.42 297.25 422.42 297.25 422.42 297.25 422.42 297.25 422.42 297.25 422.42 297.25 422.42 297.25 422.42 297.25 422.42 297.25 422.42 297.25 422.42 297.25 422.42 297.25 422.42 297.24L422.42 297.26C422.42 297.26 422.42 297.27 422.41 297.28 422.41 297.28 422.41 297.28 422.41 297.28 422.41 297.28 422.41 297.28 422.41 297.28 422.41 297.28 422.41 297.28 422.41 297.28 422.41 297.28 422.41 297.28 422.41 297.28 422.41 297.28 422.42 297.28 422.43 297.29 422.43 297.29 422.43 297.3 422.43 297.31 422.43 297.31 422.43 297.32 422.44 297.33 422.44 297.39 422.44 297.43 422.44 297.45 422.43 297.42 422.41 297.38 422.41 297.33 422.39 297.36 422.37 297.36 422.37 297.34 422.35 297.36 422.33 297.38 422.32 297.38 422.28 297.42 422.19 297.5 422.11 297.57 422.2 297.5 422.29 297.46 422.07 297.61 422.04 297.64 422.01 297.66 422.01 297.66 422.01 297.66 422.01 297.65 422.02 297.64 422.01 297.64 422 297.65 421.98 297.67 421.73 297.83 421.47 297.96 421.21 298.1 421.18 298.11 421.17 298.13 421.15 298.14 421.01 298.19 420.88 298.24 420.74 298.29 420.13 298.5 419.5 298.64 418.86 298.75 418.78 298.76 418.73 298.77 418.71 298.78 418.61 298.78 418.51 298.78 418.43 298.79 418.13 298.81 417.83 298.83 417.53 298.83 416.97 298.83 416.19 298.91 415.64 298.74 415.78 298.77 416.07 298.81 415.7 298.74 415.53 298.71 415.36 298.68 415.2 298.65 414.93 298.6 414.66 298.53 414.39 298.46 414.13 298.39 413.88 298.31 413.62 298.23 413.52 298.2 413.43 298.16 413.33 298.12 413.32 298.12 413.31 298.12 413.3 298.12 413.3 298.12 413.29 298.12 413.28 298.11 412.99 297.96 412.7 297.75 412.41 297.59 412.53 297.67 412.4 297.65 412.25 297.52 412.25 297.52 412.24 297.51 412.23 297.5 412.21 297.49 412.18 297.47 412.16 297.46 412.19 297.47 412.2 297.48 412.23 297.49 412.18 297.44 412.14 297.4 412.09 297.35 412.09 297.35 412.09 297.35 412.09 297.35 412.09 297.36 412.09 297.38 412.09 297.38 412.07 297.36 412.06 297.33 412.05 297.31 412.04 297.3 412.02 297.28 412.01 297.27 412.01 297.27 412.01 297.27 412.01 297.26 412.01 297.26 412.01 297.26 412.01 297.26 412.01 297.26 412.01 297.26 412.01 297.25Z" stroke="#447249" stroke-width="2" stroke-miterlimit="10" fill="#447249"/><path d="M335.31 360.68C335.35 360.76 335.42 360.9 335.41 360.9 335.38 360.9 335.35 360.8 335.31 360.68Z" stroke="#447249" stroke-width="2" stroke-miterlimit="10" fill="#447249"/><path d="M332.03 387.56C332.04 387.64 332.05 387.7 332.05 387.7 332.03 387.68 332.03 387.62 332.03 387.56Z" stroke="#447249" stroke-width="2" stroke-miterlimit="10" fill="#447249"/><path d="M332.2 388.07C332.2 388.07 332.2 388.07 332.2 388.07 332.2 388.08 332.2 388.09 332.2 388.11 332.2 388.1 332.2 388.08 332.19 388.07Z" stroke="#447249" stroke-width="2" stroke-miterlimit="10" fill="#447249"/><path d="M411.99 297.09C411.99 297.09 411.99 297.15 411.98 297.18 411.98 297.13 411.98 297.09 411.99 297.09Z" stroke="#447249" stroke-width="2" stroke-miterlimit="10" fill="#447249"/><path d="M422.55 297.02C422.55 297.02 422.49 297.12 422.47 297.17 422.47 297.15 422.47 297.14 422.47 297.13 422.49 297.1 422.52 297.06 422.55 297.02Z" stroke="#447249" stroke-width="2" stroke-miterlimit="10" fill="#447249"/><path d="M422.52 297.17C422.52 297.17 422.49 297.19 422.47 297.21 422.47 297.21 422.47 297.21 422.47 297.2 422.49 297.2 422.5 297.18 422.52 297.17Z" stroke="#447249" stroke-width="2" stroke-miterlimit="10" fill="#447249"/><path d="M422.44 297.46C422.44 297.46 422.44 297.43 422.45 297.38 422.49 297.52 422.47 297.53 422.44 297.46Z" stroke="#447249" stroke-width="2" stroke-miterlimit="10" fill="#447249"/><path d="M422.09 296.92C422.04 296.88 421.87 296.77 421.86 296.77 421.93 296.78 422.01 296.85 422.09 296.92Z" stroke="#447249" stroke-width="2" stroke-miterlimit="10" fill="#447249"/><path d="M418.92 298.75C418.92 298.75 418.84 298.77 418.79 298.77 418.83 298.77 418.88 298.75 418.92 298.75Z" stroke="#447249" stroke-width="2" stroke-miterlimit="10" fill="#447249"/><path d="M411.96 297.22C411.96 297.22 411.96 297.22 411.96 297.23 411.95 297.21 411.95 297.21 411.96 297.22Z" stroke="#447249" stroke-width="2" stroke-miterlimit="10" fill="#447249"/><path d="M341.16 362.22C341.16 362.22 341.19 362.19 341.16 362.22L341.16 362.22Z" stroke="#447249" stroke-width="2" stroke-miterlimit="10" fill="#447249"/><path d="M422.02 297.65C422.02 297.65 422.05 297.63 422.06 297.62 422.07 297.61 422.09 297.6 422.1 297.58 422.07 297.6 422.03 297.63 422.02 297.65Z" stroke="#447249" stroke-width="2" stroke-miterlimit="10" fill="#447249"/><path d="M412.24 297.49C412.3 297.52 412.36 297.55 412.42 297.58 412.38 297.56 412.32 297.52 412.23 297.48 412.23 297.48 412.23 297.48 412.23 297.48Z" stroke="#447249" stroke-width="2" stroke-miterlimit="10" fill="#447249"/><path d="M422.43 297.22 422.43 297.22 422.43 297.22 422.43 297.22Z" stroke="#447249" stroke-width="2" stroke-miterlimit="10" fill="#447249"/><path d="M422.43 297.19C422.43 297.19 422.43 297.19 422.43 297.21 422.43 297.21 422.43 297.21 422.43 297.22 422.43 297.22 422.43 297.2 422.43 297.19Z" stroke="#447249" stroke-width="2" stroke-miterlimit="10" fill="#447249"/><path d="M422.43 297.22 422.43 297.22 422.43 297.23 422.43 297.22Z" stroke="#447249" stroke-width="2" stroke-miterlimit="10" fill="#447249"/><path d="M422.44 297.23C422.44 297.23 422.44 297.21 422.45 297.21 422.45 297.21 422.44 297.21 422.43 297.22 422.43 297.22 422.43 297.22 422.43 297.23Z" stroke="#447249" stroke-width="2" stroke-miterlimit="10" fill="#447249"/><path d="M412.02 297.26C412.02 297.26 412.04 297.29 412.05 297.3 412.06 297.31 412.07 297.32 412.09 297.34 412.08 297.32 412.05 297.29 412.02 297.26Z" stroke="#447249" stroke-width="2" stroke-miterlimit="10" fill="#447249"/><path d="M422.31 297.39C422.31 297.39 422.33 297.38 422.33 297.37 422.33 297.37 422.35 297.35 422.36 297.34 422.36 297.34 422.36 297.34 422.36 297.34 422.37 297.33 422.38 297.31 422.39 297.3 422.39 297.31 422.39 297.32 422.39 297.33 422.39 297.33 422.4 297.32 422.41 297.31 422.41 297.31 422.41 297.29 422.4 297.29 422.4 297.29 422.4 297.29 422.4 297.28 422.4 297.28 422.4 297.28 422.4 297.28 422.4 297.28 422.4 297.28 422.4 297.28 422.4 297.28 422.4 297.28 422.4 297.28 422.4 297.27 422.4 297.26 422.4 297.25 422.4 297.25 422.4 297.25 422.39 297.26 422.39 297.26 422.39 297.26 422.39 297.26 422.39 297.26 422.39 297.26 422.39 297.27 422.39 297.27 422.39 297.27 422.39 297.27 422.39 297.27 422.39 297.27 422.39 297.27 422.39 297.27 422.39 297.27 422.39 297.27 422.3 297.35 422.28 297.42 422.32 297.4Z" stroke="#447249" stroke-width="2" stroke-miterlimit="10" fill="#447249"/><path d="M332.08 387.66C332.08 387.66 332.08 387.7 332.09 387.72 332.1 387.77 332.13 387.83 332.16 387.91 332.11 387.74 332.08 387.67 332.08 387.66Z" stroke="#447249" stroke-width="2" stroke-miterlimit="10" fill="#447249"/><path d="M460.17 359.27C461.14 359.23 461.96 358.48 461.96 357.48L461.96 353.84C461.96 353.38 461.76 352.9 461.43 352.57 461.12 352.26 460.61 352.02 460.16 352.04 459.19 352.08 458.37 352.83 458.37 353.83L458.37 357.47C458.37 357.93 458.57 358.41 458.9 358.74 459.21 359.05 459.72 359.29 460.17 359.27Z" stroke="#447249" stroke-width="2" stroke-miterlimit="10" fill="#447249"/><path d="M364.9 287.03C363.08 288.24 361.26 289.46 359.44 290.67 359.05 290.93 358.74 291.28 358.62 291.74 358.5 292.17 358.56 292.74 358.8 293.12 359.3 293.9 360.42 294.32 361.25 293.76 363.07 292.55 364.89 291.33 366.71 290.12 367.1 289.86 367.41 289.51 367.53 289.05 367.65 288.62 367.59 288.05 367.35 287.67 366.85 286.89 365.73 286.47 364.9 287.03Z" stroke="#447249" stroke-width="2" stroke-miterlimit="10" fill="#447249"/></g></g><g><path d="M438.87 412.83C437.86 413.93 436.57 414.94 438.41 416.19L461.84 421.58C462.78 421.84 463.74 421.03 463.73 420.07 463.66 416.37 463.14 412.36 462.89 408.63 462.6 404.41 462.54 399.88 462.04 395.72 461.91 394.63 460.89 393.93 459.86 394.45L455.31 398.71C449 393.28 441.52 389.26 433.4 387.27 405.17 380.35 376.7 397.88 370.25 426.06 361.99 462.11 392.91 494.95 429.36 489.07 450.2 485.71 467.18 469.63 471.69 449.04 472.4 445.79 472.99 442.89 471.01 439.92 466.97 433.85 457.73 435.67 456.05 442.79 455.2 446.38 454.77 449.15 453.2 452.59 441.76 477.74 406.78 480.44 391.43 457.5 374.17 431.71 396.15 397.94 426.66 402.75 432.19 403.62 437.7 406.03 442.15 409.38 441.05 410.52 439.94 411.66 438.86 412.83ZM404.4 420.7C403.66 420.79 403.06 421.14 402.93 421.93L402.93 459.39C403.12 460.01 403.65 460.46 404.29 460.55 405.41 460.7 409.29 460.7 410.41 460.55 411.15 460.45 411.86 459.81 411.86 459.03L411.86 422.13C411.74 421.3 411.2 420.81 410.39 420.71 409.09 420.54 405.7 420.55 404.4 420.71ZM416.94 421.54C415.85 421.7 414.97 422.62 414.82 423.7L414.82 457.45C415.03 459.3 417.06 460.32 418.7 459.37 428.4 453.68 438.24 448.22 447.86 442.42 448.52 441.65 448.77 440.71 448.43 439.74 448.09 438.76 447.41 438.46 446.59 437.96 437.5 432.41 428 427.5 418.89 421.97 418.27 421.6 417.67 421.44 416.95 421.55Z" fill="#FFFFFF"/><path d="M438.87 412.83C439.94 411.66 441.06 410.52 442.16 409.38 437.71 406.03 432.2 403.62 426.67 402.75 396.15 397.94 374.18 431.71 391.44 457.5 406.79 480.45 441.77 477.74 453.21 452.59 454.77 449.15 455.21 446.38 456.06 442.79 457.74 435.67 466.98 433.85 471.02 439.92 472.99 442.88 472.41 445.79 471.7 449.04 467.19 469.63 450.21 485.72 429.37 489.07 392.92 494.94 362 462.11 370.26 426.06 376.72 397.88 405.18 380.35 433.41 387.27 441.53 389.26 449.01 393.28 455.32 398.71L459.87 394.45C460.9 393.93 461.92 394.63 462.05 395.72 462.54 399.88 462.61 404.41 462.9 408.63 463.15 412.36 463.67 416.37 463.74 420.07 463.76 421.02 462.79 421.84 461.85 421.58L438.42 416.19C436.57 414.94 437.87 413.93 438.88 412.83ZM459.35 399.11C459.19 399.07 459.16 399.18 459.07 399.25 458.1 399.99 457.22 401.34 456.18 402.03 454.81 402.95 453.71 401.27 452.79 400.51 436.65 387.08 414.39 384.76 396.11 395.51 368.28 411.87 363.54 450.36 386.79 472.93 411.24 496.66 452.12 488.81 465.78 457.65 467.26 454.27 469.1 448.83 469.39 445.18 469.74 440.79 465.3 437.75 461.43 440.01 458.66 441.62 458.86 444.73 458.14 447.5 450.43 477.05 412.54 486.28 392.19 463.36 370.44 438.85 387.39 400.41 419.89 399.31 428.11 399.03 438.78 402.29 444.99 407.78 445.72 408.43 446.18 409.01 445.64 410 445.04 411.11 442.95 412.63 442.11 413.72 442.04 413.81 441.93 413.84 441.97 414L460.56 418.18 459.35 399.12Z" stroke="#447249" stroke-width="2" stroke-miterlimit="10" fill="#447249"/><path d="M416.94 421.54C417.67 421.44 418.27 421.59 418.88 421.96 427.99 427.49 437.49 432.4 446.58 437.95 447.4 438.45 448.08 438.75 448.42 439.73 448.76 440.71 448.52 441.65 447.85 442.41 438.23 448.2 428.38 453.67 418.69 459.36 417.06 460.31 415.02 459.29 414.81 457.44L414.81 423.69C414.96 422.61 415.84 421.69 416.93 421.53ZM417.8 456.37 445.13 440.61 417.8 424.85 417.8 456.36Z" stroke="#447249" stroke-width="2" stroke-miterlimit="10" fill="#447249"/><path d="M404.4 420.7C405.7 420.54 409.09 420.53 410.39 420.7 411.2 420.8 411.74 421.3 411.85 422.12L411.85 459.02C411.86 459.8 411.15 460.44 410.41 460.54 409.29 460.69 405.41 460.69 404.29 460.54 403.66 460.45 403.12 460 402.94 459.38L402.94 421.92C403.07 421.14 403.66 420.79 404.4 420.69ZM405.83 423.64 405.83 457.49 408.88 457.49 408.88 423.64 405.83 423.64Z" stroke="#447249" stroke-width="2" stroke-miterlimit="10" fill="#447249"/><path d="M459.35 399.11 460.56 418.17 441.97 413.99C441.93 413.83 442.04 413.8 442.11 413.71 442.95 412.62 445.03 411.09 445.64 409.99 446.18 409 445.73 408.42 444.99 407.77 438.78 402.28 428.11 399.02 419.89 399.3 387.39 400.4 370.44 438.85 392.19 463.35 412.54 486.27 450.43 477.04 458.14 447.49 458.86 444.71 458.66 441.61 461.43 440 465.3 437.75 469.74 440.79 469.39 445.17 469.1 448.82 467.26 454.26 465.78 457.64 452.12 488.8 411.25 496.65 386.79 472.92 363.53 450.35 368.27 411.86 396.11 395.5 414.39 384.76 436.65 387.07 452.79 400.5 453.71 401.27 454.81 402.94 456.18 402.02 457.21 401.33 458.1 399.98 459.07 399.24 459.16 399.17 459.19 399.06 459.35 399.1Z" fill="#FFFFFF"/><path d="M417.8 456.37 417.8 424.86 445.13 440.62 417.8 456.37Z" fill="#FFFFFF"/><rect x="405.83" y="423.64" width="3.05" height="33.85" fill="#FFFFFF"/></g><g><path d="M390.29 399.23C390.6 397.51 392.41 397.81 393.65 397.95 402.52 398.93 412.59 403.73 418.25 410.7L420.95 414.43C425.91 405.76 435.37 400.46 444.98 398.5 446.25 398.24 448.57 397.72 449.78 397.76 450.3 397.78 451.44 398.59 451.44 399.05L451.44 404.17 456.56 404.17C456.56 404.17 457.07 404.53 457.11 404.57 457.79 405.34 457.3 406.96 457.68 407.22 459.29 407.73 463.08 406.21 463.41 408.61L463.29 465.61C462.45 467.15 460.53 466.37 459.17 466.34 448.22 466.12 435.5 467.01 425.43 471.53 424.59 471.91 421.44 473.79 420.93 473.81 420.06 473.85 419.67 473.23 419.07 472.92 407.91 467.21 395.15 466.11 382.73 466.35 381.53 466.37 379.05 467.14 378.44 465.62L378.32 408.62C378.36 408.35 378.57 407.85 378.75 407.66 379.39 406.98 382.92 407.4 384.05 407.22L384.22 406.87C384.22 406.13 384.09 405.18 384.62 404.58 384.66 404.53 385.14 404.18 385.17 404.18L390.29 404.18C390.47 402.7 390.04 400.63 390.29 399.23ZM419.12 465.15 419.12 418.16C419.12 418.01 417.84 415.83 417.63 415.48 412.64 407.33 402.87 402.51 393.59 401.4L393.59 451.25C403.7 451.95 413.09 457.07 419.12 465.15ZM448.13 401.4C438.83 402.52 429.08 407.32 424.09 415.48 423.88 415.83 422.6 418.01 422.6 418.16L422.6 465.15C428.65 457.08 438.01 451.96 448.13 451.25L448.13 401.4ZM390.29 407.48 387.51 407.48 387.51 457.16C394.81 457.66 402.33 459.19 409.04 462.12 410.88 462.92 412.61 463.98 414.43 464.8 409.76 459.22 402.87 455.95 395.73 454.75 394.57 454.56 391.72 454.53 390.97 453.95 390.82 453.83 390.28 453.19 390.28 453.07L390.28 407.47ZM454.21 407.48 451.43 407.48 451.43 453.08C451.43 453.2 450.89 453.84 450.74 453.96 450 454.53 447 454.59 445.83 454.78 438.75 455.97 431.91 459.28 427.28 464.8 429.37 463.8 431.39 462.66 433.54 461.77 440.03 459.07 447.19 457.64 454.2 457.16L454.2 407.48ZM384.21 410.44 381.6 410.44 381.6 463.25C385.57 462.96 389.68 462.99 393.67 463.25 398.31 463.55 402.92 464.31 407.48 465.16L404.62 463.94C399.96 462.35 395.1 461.23 390.2 460.64 388.87 460.48 385.6 460.66 384.69 459.95 384.61 459.89 384.21 459.38 384.21 459.34L384.21 410.44ZM460.12 410.44 457.51 410.44 457.51 459.34C457.51 459.41 456.79 460.33 456.51 460.25 449.89 460.67 443.34 461.7 437.1 463.94L434.24 465.16C442.73 463.5 451.47 462.66 460.12 463.25L460.12 410.44Z" fill="#447249"/><path d="M448.13 401.4 448.13 451.25C438.01 451.95 428.65 457.07 422.6 465.15L422.6 418.16C422.6 418.01 423.88 415.83 424.09 415.48 429.08 407.32 438.84 402.52 448.13 401.4Z" fill="#FFFFFF"/><path d="M419.12 465.15C413.09 457.08 403.69 451.96 393.59 451.25L393.59 401.4C402.87 402.51 412.65 407.33 417.63 415.48 417.84 415.83 419.12 418.01 419.12 418.16L419.12 465.15Z" fill="#FFFFFF"/><path d="M454.21 407.48 454.21 457.16C447.2 457.64 440.04 459.07 433.55 461.77 431.41 462.66 429.38 463.8 427.29 464.8 431.92 459.28 438.76 455.97 445.84 454.78 447.01 454.58 450.01 454.53 450.75 453.96 450.9 453.84 451.44 453.2 451.44 453.08L451.44 407.48 454.22 407.48Z" fill="#FFFFFF"/><path d="M390.29 407.48 390.29 453.08C390.29 453.2 390.83 453.84 390.98 453.96 391.73 454.54 394.58 454.57 395.74 454.76 402.88 455.95 409.77 459.23 414.44 464.81 412.62 463.99 410.89 462.92 409.05 462.13 402.34 459.21 394.82 457.67 387.52 457.17L387.52 407.49 390.3 407.49Z" fill="#FFFFFF"/><path d="M460.12 410.44 460.12 463.25C451.47 462.65 442.72 463.5 434.24 465.16L437.1 463.94C443.34 461.7 449.9 460.67 456.51 460.25 456.79 460.33 457.51 459.41 457.51 459.34L457.51 410.44 460.12 410.44Z" fill="#FFFFFF"/><path d="M384.21 410.44 384.21 459.34C384.21 459.34 384.61 459.89 384.69 459.95 385.61 460.66 388.87 460.48 390.2 460.64 395.1 461.23 399.96 462.34 404.62 463.94L407.48 465.16C402.92 464.32 398.31 463.56 393.67 463.25 389.68 462.99 385.57 462.96 381.6 463.25L381.6 410.44 384.21 410.44Z" fill="#FFFFFF"/></g><g><path d="M462.89 408.64C462.6 404.42 462.54 399.89 462.04 395.73 461.91 394.64 460.89 393.94 459.86 394.46L455.31 398.72C449 393.29 441.52 389.27 433.4 387.28 412.16 382.08 390.79 390.71 378.76 407.31 379.94 407.38 381.12 407.48 382.3 407.61 385.97 402.91 390.58 398.77 396.11 395.51 414.39 384.77 436.65 387.08 452.79 400.51 453.71 401.28 454.81 402.95 456.18 402.03 457.21 401.34 458.1 399.99 459.07 399.25 459.16 399.18 459.19 399.07 459.35 399.11L460.56 418.17 441.97 413.99C441.93 413.83 442.04 413.8 442.11 413.71 442.95 412.62 445.03 411.09 445.64 409.99 446.18 409 445.73 408.42 444.99 407.77 438.78 402.28 428.11 399.02 419.89 399.3 415.54 399.45 411.49 400.28 407.76 401.65 407.79 402.43 407.78 403.43 407.76 404.38L408.98 404.38C414.32 402.44 420.31 401.75 426.67 402.76 432.2 403.63 437.71 406.04 442.16 409.39 441.06 410.53 439.95 411.67 438.87 412.84 437.86 413.94 436.57 414.95 438.41 416.2L461.84 421.59C462.78 421.85 463.74 421.04 463.73 420.08 463.66 416.38 463.14 412.37 462.89 408.64Z" stroke="#447249" stroke-width="2" stroke-miterlimit="10" fill="#447249"/><path d="M442.11 413.71C442.04 413.8 441.93 413.83 441.97 413.99L460.56 418.17 459.35 399.11C459.19 399.07 459.16 399.18 459.07 399.25 458.11 399.99 457.22 401.34 456.18 402.03 454.81 402.95 453.71 401.27 452.79 400.51 436.65 387.08 414.39 384.76 396.11 395.51 390.57 398.76 385.97 402.9 382.3 407.61 383.81 407.77 385.32 408 386.82 408.25 387.54 408.08 388.25 407.94 388.96 407.84 388.99 407.32 389.04 406.96 389.11 406.93 389.94 406.56 390.75 406.22 391.56 405.91 391.59 404.93 391.62 404.38 391.66 404.38L393.58 404.38C393.62 402.77 393.66 401.83 393.71 401.83L395.64 401.83C395.67 401.65 395.71 401.47 395.75 401.32 396.53 398.87 397.85 396.9 400.67 397.37 403.08 397.77 405.3 399.3 407.5 400.3 407.65 400.37 407.73 400.91 407.76 401.66 411.49 400.29 415.54 399.45 419.89 399.31 428.11 399.03 438.78 402.29 444.99 407.78 445.72 408.43 446.18 409.01 445.64 410 445.04 411.11 442.95 412.63 442.11 413.72Z" fill="#FFFFFF"/></g><g><path d="M460.12 426.23 460.12 463.24C451.47 462.64 442.72 463.49 434.24 465.15L437.1 463.93C443.34 461.69 449.9 460.66 456.51 460.24 456.79 460.32 457.51 459.4 457.51 459.33L457.51 425.34C456.41 424.98 455.31 424.63 454.21 424.3L454.21 457.16C447.2 457.64 440.04 459.07 433.55 461.77 431.41 462.66 429.38 463.8 427.29 464.8 431.92 459.28 438.76 455.97 445.84 454.78 447.01 454.58 450.01 454.53 450.75 453.96 450.9 453.84 451.44 453.2 451.44 453.08L451.44 423.51C450.35 423.22 449.24 422.95 448.14 422.7L448.14 451.25C438.02 451.95 428.66 457.07 422.61 465.15L422.61 418.16C422.61 418.01 423.89 415.83 424.1 415.48 426.47 411.6 429.93 408.49 433.89 406.16 433.87 404.95 433.86 403.7 433.84 402.44 428.55 405.22 423.93 409.21 420.95 414.42L418.25 410.69C412.6 403.72 402.53 398.92 393.65 397.94 392.4 397.8 390.59 397.5 390.29 399.22 390.04 400.62 390.47 402.69 390.29 404.17L385.17 404.17C385.17 404.17 384.66 404.53 384.62 404.57 384.09 405.17 384.23 406.12 384.22 406.86L384.05 407.21C382.92 407.39 379.39 406.97 378.75 407.65 378.57 407.84 378.36 408.34 378.32 408.61L378.44 465.61C379.05 467.13 381.53 466.37 382.73 466.34 395.15 466.1 407.91 467.21 419.07 472.91 419.67 473.22 420.06 473.84 420.93 473.8 421.44 473.78 424.59 471.9 425.43 471.52 435.5 467 448.22 466.12 459.17 466.33 460.53 466.36 462.44 467.14 463.29 465.6L463.37 427.37C462.29 426.97 461.21 426.58 460.12 426.2ZM393.67 463.24C389.68 462.98 385.57 462.95 381.6 463.24L381.6 410.43 384.21 410.43 384.21 459.33C384.21 459.33 384.61 459.88 384.69 459.94 385.61 460.65 388.87 460.47 390.2 460.63 395.1 461.22 399.96 462.33 404.62 463.93L407.48 465.15C402.92 464.31 398.31 463.55 393.67 463.24ZM409.04 462.12C402.33 459.2 394.81 457.66 387.51 457.16L387.51 407.48 390.29 407.48 390.29 453.08C390.29 453.2 390.83 453.84 390.98 453.96 391.73 454.54 394.58 454.57 395.74 454.76 402.88 455.95 409.77 459.23 414.44 464.81 412.62 463.99 410.88 462.92 409.05 462.13ZM419.12 465.15C413.09 457.08 403.69 451.96 393.59 451.25L393.59 401.4C402.87 402.51 412.65 407.33 417.63 415.48 417.84 415.83 419.12 418.01 419.12 418.16L419.12 465.15Z" fill="#447249"/><path d="M434.05 421.25C434.05 421.25 433.99 414.53 433.88 406.18 429.92 408.51 426.46 411.62 424.09 415.5 423.88 415.85 422.6 418.03 422.6 418.18L422.6 465.17C428.65 457.1 438.01 451.98 448.13 451.27L448.13 422.72C443.56 421.7 438.89 421.11 434.05 421.26Z" fill="#FFFFFF"/><path d="M419.12 465.15C413.09 457.08 403.69 451.96 393.59 451.25L393.59 401.4C402.87 402.51 412.65 407.33 417.63 415.48 417.84 415.83 419.12 418.01 419.12 418.16L419.12 465.15Z" fill="#FFFFFF"/><path d="M451.43 423.51 451.43 453.08C451.43 453.2 450.89 453.84 450.74 453.96 450 454.53 447 454.59 445.83 454.78 438.75 455.97 431.91 459.28 427.28 464.8 429.37 463.8 431.39 462.66 433.54 461.77 440.03 459.07 447.19 457.64 454.2 457.16L454.2 424.3C453.28 424.02 452.35 423.76 451.42 423.51Z" fill="#FFFFFF"/><path d="M390.29 407.48 390.29 453.08C390.29 453.2 390.83 453.84 390.98 453.96 391.73 454.54 394.58 454.57 395.74 454.76 402.88 455.95 409.77 459.23 414.44 464.81 412.62 463.99 410.89 462.92 409.05 462.13 402.34 459.21 394.82 457.67 387.52 457.17L387.52 407.49 390.3 407.49Z" fill="#FFFFFF"/><path d="M457.51 425.34 457.51 459.33C457.51 459.4 456.79 460.32 456.51 460.24 449.89 460.66 443.34 461.69 437.1 463.93L434.24 465.15C442.73 463.49 451.47 462.65 460.12 463.24L460.12 426.23C459.25 425.93 458.38 425.63 457.51 425.34Z" fill="#FFFFFF"/><path d="M384.21 410.44 384.21 459.34C384.21 459.34 384.61 459.89 384.69 459.95 385.61 460.66 388.87 460.48 390.2 460.64 395.1 461.23 399.96 462.34 404.62 463.94L407.48 465.16C402.92 464.32 398.31 463.56 393.67 463.25 389.68 462.99 385.57 462.96 381.6 463.25L381.6 410.44 384.21 410.44Z" fill="#FFFFFF"/></g></g></g></svg>